<?xml version="1.0" encoding="utf-8" standalone="no"?>
<!DOCTYPE svg PUBLIC "-//W3C//DTD SVG 1.1//EN"
  "http://www.w3.org/Graphics/SVG/1.1/DTD/svg11.dtd">
<svg xmlns:xlink="http://www.w3.org/1999/xlink" width="216pt" height="288pt" viewBox="0 0 216 288" xmlns="http://www.w3.org/2000/svg" version="1.1">
 <metadata>
  <rdf:RDF xmlns:dc="http://purl.org/dc/elements/1.1/" xmlns:cc="http://creativecommons.org/ns#" xmlns:rdf="http://www.w3.org/1999/02/22-rdf-syntax-ns#">
   <cc:Work>
    <dc:type rdf:resource="http://purl.org/dc/dcmitype/StillImage"/>
    <dc:date>2024-04-24T01:11:23.753335</dc:date>
    <dc:format>image/svg+xml</dc:format>
    <dc:creator>
     <cc:Agent>
      <dc:title>Matplotlib v3.8.1, https://matplotlib.org/</dc:title>
     </cc:Agent>
    </dc:creator>
   </cc:Work>
  </rdf:RDF>
 </metadata>
 <defs>
  <style type="text/css">*{stroke-linejoin: round; stroke-linecap: butt}</style>
 </defs>
 <g id="figure_1">
  <g id="patch_1">
   <path d="M 0 288 
L 216 288 
L 216 0 
L 0 0 
z
" style="fill: #ffffff"/>
  </g>
  <g id="axes_1">
   <g id="patch_2">
    <path d="M 12.96 275.04 
L 203.04 275.04 
L 203.04 12.96 
L 12.96 12.96 
z
" style="fill: #ffffff"/>
   </g>
   <g id="matplotlib.axis_1">
    <g id="xtick_1"/>
    <g id="xtick_2"/>
   </g>
   <g id="matplotlib.axis_2">
    <g id="ytick_1">
     <g id="line2d_1">
      <path d="M 12.96 275.04 
L 203.04 275.04 
" clip-path="url(#p3c9c8d07ac)" style="fill: none; stroke: #cccccc; stroke-linecap: round"/>
     </g>
    </g>
    <g id="ytick_2">
     <g id="line2d_2">
      <path d="M 12.96 222.624 
L 203.04 222.624 
" clip-path="url(#p3c9c8d07ac)" style="fill: none; stroke: #cccccc; stroke-linecap: round"/>
     </g>
    </g>
    <g id="ytick_3">
     <g id="line2d_3">
      <path d="M 12.96 170.208 
L 203.04 170.208 
" clip-path="url(#p3c9c8d07ac)" style="fill: none; stroke: #cccccc; stroke-linecap: round"/>
     </g>
    </g>
    <g id="ytick_4">
     <g id="line2d_4">
      <path d="M 12.96 117.792 
L 203.04 117.792 
" clip-path="url(#p3c9c8d07ac)" style="fill: none; stroke: #cccccc; stroke-linecap: round"/>
     </g>
    </g>
    <g id="ytick_5">
     <g id="line2d_5">
      <path d="M 12.96 65.376 
L 203.04 65.376 
" clip-path="url(#p3c9c8d07ac)" style="fill: none; stroke: #cccccc; stroke-linecap: round"/>
     </g>
    </g>
    <g id="ytick_6">
     <g id="line2d_6">
      <path d="M 12.96 12.96 
L 203.04 12.96 
" clip-path="url(#p3c9c8d07ac)" style="fill: none; stroke: #cccccc; stroke-linecap: round"/>
     </g>
    </g>
   </g>
   <g id="patch_3">
    <path d="M 60.48 275.04 
L 60.48 275.04 
L 60.48 275.04 
L 60.48 275.04 
z
" clip-path="url(#p3c9c8d07ac)" style="fill: #5caa56; stroke: #4c4c4c; stroke-linejoin: miter"/>
   </g>
   <g id="patch_4">
    <path d="M 60.48 275.04 
L 60.48 275.04 
L 60.48 275.04 
L 60.48 275.04 
z
" clip-path="url(#p3c9c8d07ac)" style="fill: #5671a7; stroke: #4c4c4c; stroke-linejoin: miter"/>
   </g>
   <g id="patch_5">
    <path d="M 22.464 254.0736 
L 60.48 254.0736 
L 60.48 201.6576 
L 22.464 201.6576 
L 22.464 254.0736 
z
" clip-path="url(#p3c9c8d07ac)" style="fill: #5caa56; stroke: #4c4c4c; stroke-linejoin: miter"/>
   </g>
   <g id="line2d_7">
    <path d="M 41.472 254.0736 
L 41.472 254.0736 
" clip-path="url(#p3c9c8d07ac)" style="fill: none; stroke: #4c4c4c"/>
   </g>
   <g id="line2d_8">
    <path d="M 41.472 201.6576 
L 41.472 201.6576 
" clip-path="url(#p3c9c8d07ac)" style="fill: none; stroke: #4c4c4c"/>
   </g>
   <g id="line2d_9">
    <path d="M 31.968 254.0736 
L 50.976 254.0736 
" clip-path="url(#p3c9c8d07ac)" style="fill: none; stroke: #4c4c4c; stroke-linecap: round"/>
   </g>
   <g id="line2d_10">
    <path d="M 31.968 201.6576 
L 50.976 201.6576 
" clip-path="url(#p3c9c8d07ac)" style="fill: none; stroke: #4c4c4c; stroke-linecap: round"/>
   </g>
   <g id="line2d_11">
    <defs>
     <path id="m135b4ba105" d="M 0 3 
C 0.795609 3 1.55874 2.683901 2.12132 2.12132 
C 2.683901 1.55874 3 0.795609 3 0 
C 3 -0.795609 2.683901 -1.55874 2.12132 -2.12132 
C 1.55874 -2.683901 0.795609 -3 0 -3 
C -0.795609 -3 -1.55874 -2.683901 -2.12132 -2.12132 
C -2.683901 -1.55874 -3 -0.795609 -3 0 
C -3 0.795609 -2.683901 1.55874 -2.12132 2.12132 
C -1.55874 2.683901 -0.795609 3 0 3 
z
" style="stroke: #4c4c4c"/>
    </defs>
    <g clip-path="url(#p3c9c8d07ac)">
     <use xlink:href="#m135b4ba105" x="41.472" y="96.8256" style="fill-opacity: 0; stroke: #4c4c4c"/>
     <use xlink:href="#m135b4ba105" x="41.472" y="96.8256" style="fill-opacity: 0; stroke: #4c4c4c"/>
     <use xlink:href="#m135b4ba105" x="41.472" y="96.8256" style="fill-opacity: 0; stroke: #4c4c4c"/>
    </g>
   </g>
   <g id="patch_6">
    <path d="M 117.504 264.5568 
L 155.52 264.5568 
L 155.52 233.1072 
L 117.504 233.1072 
L 117.504 264.5568 
z
" clip-path="url(#p3c9c8d07ac)" style="fill: #5caa56; stroke: #4c4c4c; stroke-linejoin: miter"/>
   </g>
   <g id="line2d_12">
    <path d="M 136.512 264.5568 
L 136.512 264.5568 
" clip-path="url(#p3c9c8d07ac)" style="fill: none; stroke: #4c4c4c"/>
   </g>
   <g id="line2d_13">
    <path d="M 136.512 233.1072 
L 136.512 191.1744 
" clip-path="url(#p3c9c8d07ac)" style="fill: none; stroke: #4c4c4c"/>
   </g>
   <g id="line2d_14">
    <path d="M 127.008 264.5568 
L 146.016 264.5568 
" clip-path="url(#p3c9c8d07ac)" style="fill: none; stroke: #4c4c4c; stroke-linecap: round"/>
   </g>
   <g id="line2d_15">
    <path d="M 127.008 191.1744 
L 146.016 191.1744 
" clip-path="url(#p3c9c8d07ac)" style="fill: none; stroke: #4c4c4c; stroke-linecap: round"/>
   </g>
   <g id="line2d_16">
    <g clip-path="url(#p3c9c8d07ac)">
     <use xlink:href="#m135b4ba105" x="136.512" y="170.208" style="fill-opacity: 0; stroke: #4c4c4c"/>
     <use xlink:href="#m135b4ba105" x="136.512" y="170.208" style="fill-opacity: 0; stroke: #4c4c4c"/>
     <use xlink:href="#m135b4ba105" x="136.512" y="170.208" style="fill-opacity: 0; stroke: #4c4c4c"/>
     <use xlink:href="#m135b4ba105" x="136.512" y="170.208" style="fill-opacity: 0; stroke: #4c4c4c"/>
     <use xlink:href="#m135b4ba105" x="136.512" y="170.208" style="fill-opacity: 0; stroke: #4c4c4c"/>
     <use xlink:href="#m135b4ba105" x="136.512" y="170.208" style="fill-opacity: 0; stroke: #4c4c4c"/>
     <use xlink:href="#m135b4ba105" x="136.512" y="170.208" style="fill-opacity: 0; stroke: #4c4c4c"/>
     <use xlink:href="#m135b4ba105" x="136.512" y="170.208" style="fill-opacity: 0; stroke: #4c4c4c"/>
     <use xlink:href="#m135b4ba105" x="136.512" y="170.208" style="fill-opacity: 0; stroke: #4c4c4c"/>
     <use xlink:href="#m135b4ba105" x="136.512" y="170.208" style="fill-opacity: 0; stroke: #4c4c4c"/>
     <use xlink:href="#m135b4ba105" x="136.512" y="170.208" style="fill-opacity: 0; stroke: #4c4c4c"/>
     <use xlink:href="#m135b4ba105" x="136.512" y="170.208" style="fill-opacity: 0; stroke: #4c4c4c"/>
     <use xlink:href="#m135b4ba105" x="136.512" y="170.208" style="fill-opacity: 0; stroke: #4c4c4c"/>
     <use xlink:href="#m135b4ba105" x="136.512" y="170.208" style="fill-opacity: 0; stroke: #4c4c4c"/>
     <use xlink:href="#m135b4ba105" x="136.512" y="170.208" style="fill-opacity: 0; stroke: #4c4c4c"/>
     <use xlink:href="#m135b4ba105" x="136.512" y="170.208" style="fill-opacity: 0; stroke: #4c4c4c"/>
    </g>
   </g>
   <g id="patch_7">
    <path d="M 60.48 201.6576 
L 98.496 201.6576 
L 98.496 96.8256 
L 60.48 96.8256 
L 60.48 201.6576 
z
" clip-path="url(#p3c9c8d07ac)" style="fill: #5671a7; stroke: #4c4c4c; stroke-linejoin: miter"/>
   </g>
   <g id="line2d_17">
    <path d="M 79.488 201.6576 
L 79.488 254.0736 
" clip-path="url(#p3c9c8d07ac)" style="fill: none; stroke: #4c4c4c"/>
   </g>
   <g id="line2d_18">
    <path d="M 79.488 96.8256 
L 79.488 96.8256 
" clip-path="url(#p3c9c8d07ac)" style="fill: none; stroke: #4c4c4c"/>
   </g>
   <g id="line2d_19">
    <path d="M 69.984 254.0736 
L 88.992 254.0736 
" clip-path="url(#p3c9c8d07ac)" style="fill: none; stroke: #4c4c4c; stroke-linecap: round"/>
   </g>
   <g id="line2d_20">
    <path d="M 69.984 96.8256 
L 88.992 96.8256 
" clip-path="url(#p3c9c8d07ac)" style="fill: none; stroke: #4c4c4c; stroke-linecap: round"/>
   </g>
   <g id="line2d_21"/>
   <g id="patch_8">
    <path d="M 155.52 212.1408 
L 193.536 212.1408 
L 193.536 212.1408 
L 155.52 212.1408 
L 155.52 212.1408 
z
" clip-path="url(#p3c9c8d07ac)" style="fill: #5671a7; stroke: #4c4c4c; stroke-linejoin: miter"/>
   </g>
   <g id="line2d_22">
    <path d="M 174.528 212.1408 
L 174.528 212.1408 
" clip-path="url(#p3c9c8d07ac)" style="fill: none; stroke: #4c4c4c"/>
   </g>
   <g id="line2d_23">
    <path d="M 174.528 212.1408 
L 174.528 212.1408 
" clip-path="url(#p3c9c8d07ac)" style="fill: none; stroke: #4c4c4c"/>
   </g>
   <g id="line2d_24">
    <path d="M 165.024 212.1408 
L 184.032 212.1408 
" clip-path="url(#p3c9c8d07ac)" style="fill: none; stroke: #4c4c4c; stroke-linecap: round"/>
   </g>
   <g id="line2d_25">
    <path d="M 165.024 212.1408 
L 184.032 212.1408 
" clip-path="url(#p3c9c8d07ac)" style="fill: none; stroke: #4c4c4c; stroke-linecap: round"/>
   </g>
   <g id="line2d_26">
    <g clip-path="url(#p3c9c8d07ac)">
     <use xlink:href="#m135b4ba105" x="174.528" y="275.04" style="fill-opacity: 0; stroke: #4c4c4c"/>
     <use xlink:href="#m135b4ba105" x="174.528" y="275.04" style="fill-opacity: 0; stroke: #4c4c4c"/>
     <use xlink:href="#m135b4ba105" x="174.528" y="275.04" style="fill-opacity: 0; stroke: #4c4c4c"/>
    </g>
   </g>
   <g id="line2d_27">
    <path d="M 22.464 233.1072 
L 60.48 233.1072 
" clip-path="url(#p3c9c8d07ac)" style="fill: none; stroke: #4c4c4c"/>
   </g>
   <g id="line2d_28">
    <path d="M 117.504 254.0736 
L 155.52 254.0736 
" clip-path="url(#p3c9c8d07ac)" style="fill: none; stroke: #4c4c4c"/>
   </g>
   <g id="line2d_29">
    <path d="M 60.48 196.416 
L 98.496 196.416 
" clip-path="url(#p3c9c8d07ac)" style="fill: none; stroke: #4c4c4c"/>
   </g>
   <g id="line2d_30">
    <path d="M 155.52 212.1408 
L 193.536 212.1408 
" clip-path="url(#p3c9c8d07ac)" style="fill: none; stroke: #4c4c4c"/>
   </g>
   <g id="patch_9">
    <path d="M 12.96 275.04 
L 12.96 12.96 
" style="fill: none; stroke: #cccccc; stroke-width: 1.25; stroke-linejoin: miter; stroke-linecap: square"/>
   </g>
   <g id="patch_10">
    <path d="M 203.04 275.04 
L 203.04 12.96 
" style="fill: none; stroke: #cccccc; stroke-width: 1.25; stroke-linejoin: miter; stroke-linecap: square"/>
   </g>
   <g id="patch_11">
    <path d="M 12.96 275.04 
L 203.04 275.04 
" style="fill: none; stroke: #cccccc; stroke-width: 1.25; stroke-linejoin: miter; stroke-linecap: square"/>
   </g>
   <g id="patch_12">
    <path d="M 12.96 12.96 
L 203.04 12.96 
" style="fill: none; stroke: #cccccc; stroke-width: 1.25; stroke-linejoin: miter; stroke-linecap: square"/>
   </g>
   <g id="legend_1"/>
  </g>
 </g>
 <defs>
  <clipPath id="p3c9c8d07ac">
   <rect x="12.96" y="12.96" width="190.08" height="262.08"/>
  </clipPath>
 </defs>
</svg>
