<?xml version="1.0" encoding="utf-8" standalone="no"?>
<!DOCTYPE svg PUBLIC "-//W3C//DTD SVG 1.1//EN"
  "http://www.w3.org/Graphics/SVG/1.1/DTD/svg11.dtd">
<svg xmlns:xlink="http://www.w3.org/1999/xlink" width="460.8pt" height="345.6pt" viewBox="0 0 460.8 345.6" xmlns="http://www.w3.org/2000/svg" version="1.1">
 <metadata>
  <rdf:RDF xmlns:dc="http://purl.org/dc/elements/1.1/" xmlns:cc="http://creativecommons.org/ns#" xmlns:rdf="http://www.w3.org/1999/02/22-rdf-syntax-ns#">
   <cc:Work>
    <dc:type rdf:resource="http://purl.org/dc/dcmitype/StillImage"/>
    <dc:date>2024-08-11T21:29:58.647240</dc:date>
    <dc:format>image/svg+xml</dc:format>
    <dc:creator>
     <cc:Agent>
      <dc:title>Matplotlib v3.8.1, https://matplotlib.org/</dc:title>
     </cc:Agent>
    </dc:creator>
   </cc:Work>
  </rdf:RDF>
 </metadata>
 <defs>
  <style type="text/css">*{stroke-linejoin: round; stroke-linecap: butt}</style>
 </defs>
 <g id="figure_1">
  <g id="patch_1">
   <path d="M 0 345.6 
L 460.8 345.6 
L 460.8 0 
L 0 0 
z
" style="fill: #ffffff"/>
  </g>
  <g id="axes_1">
   <g id="patch_2">
    <path d="M 12.96 306.617687 
L 447.84 306.617687 
L 447.84 12.96 
L 12.96 12.96 
z
" style="fill: #ffffff"/>
   </g>
   <g id="matplotlib.axis_1">
    <g id="xtick_1">
     <g id="line2d_1">
      <path d="M 32.727273 306.617687 
L 32.727273 12.96 
" clip-path="url(#p4d51b058fe)" style="fill: none; stroke: #cccccc; stroke-linecap: round"/>
     </g>
     <g id="text_1">
      <!-- $\mathdefault{10^{0}}$ -->
      <g style="fill: #262626" transform="translate(24.092273 327.461437) scale(0.11 -0.11)">
       <defs>
        <path id="ArialMT-31" d="M 2384 0 
L 1822 0 
L 1822 3584 
Q 1619 3391 1289 3197 
Q 959 3003 697 2906 
L 697 3450 
Q 1169 3672 1522 3987 
Q 1875 4303 2022 4600 
L 2384 4600 
L 2384 0 
z
" transform="scale(0.015625)"/>
        <path id="ArialMT-30" d="M 266 2259 
Q 266 3072 433 3567 
Q 600 4063 929 4331 
Q 1259 4600 1759 4600 
Q 2128 4600 2406 4451 
Q 2684 4303 2865 4023 
Q 3047 3744 3150 3342 
Q 3253 2941 3253 2259 
Q 3253 1453 3087 958 
Q 2922 463 2592 192 
Q 2263 -78 1759 -78 
Q 1097 -78 719 397 
Q 266 969 266 2259 
z
M 844 2259 
Q 844 1131 1108 757 
Q 1372 384 1759 384 
Q 2147 384 2411 759 
Q 2675 1134 2675 2259 
Q 2675 3391 2411 3762 
Q 2147 4134 1753 4134 
Q 1366 4134 1134 3806 
Q 844 3388 844 2259 
z
" transform="scale(0.015625)"/>
       </defs>
       <use xlink:href="#ArialMT-31" transform="translate(0 0.99375)"/>
       <use xlink:href="#ArialMT-30" transform="translate(55.615234 0.99375)"/>
       <use xlink:href="#ArialMT-30" transform="translate(112.972813 70.6875) scale(0.7)"/>
      </g>
     </g>
    </g>
    <g id="xtick_2">
     <g id="line2d_2">
      <path d="M 154.265335 306.617687 
L 154.265335 12.96 
" clip-path="url(#p4d51b058fe)" style="fill: none; stroke: #cccccc; stroke-linecap: round"/>
     </g>
     <g id="text_2">
      <!-- $\mathdefault{10^{1}}$ -->
      <g style="fill: #262626" transform="translate(145.630335 327.461437) scale(0.11 -0.11)">
       <use xlink:href="#ArialMT-31" transform="translate(0 0.99375)"/>
       <use xlink:href="#ArialMT-30" transform="translate(55.615234 0.99375)"/>
       <use xlink:href="#ArialMT-31" transform="translate(112.972813 70.6875) scale(0.7)"/>
      </g>
     </g>
    </g>
    <g id="xtick_3">
     <g id="line2d_3">
      <path d="M 275.803397 306.617687 
L 275.803397 12.96 
" clip-path="url(#p4d51b058fe)" style="fill: none; stroke: #cccccc; stroke-linecap: round"/>
     </g>
     <g id="text_3">
      <!-- $\mathdefault{10^{2}}$ -->
      <g style="fill: #262626" transform="translate(267.168397 327.461437) scale(0.11 -0.11)">
       <defs>
        <path id="ArialMT-32" d="M 3222 541 
L 3222 0 
L 194 0 
Q 188 203 259 391 
Q 375 700 629 1000 
Q 884 1300 1366 1694 
Q 2113 2306 2375 2664 
Q 2638 3022 2638 3341 
Q 2638 3675 2398 3904 
Q 2159 4134 1775 4134 
Q 1369 4134 1125 3890 
Q 881 3647 878 3216 
L 300 3275 
Q 359 3922 746 4261 
Q 1134 4600 1788 4600 
Q 2447 4600 2831 4234 
Q 3216 3869 3216 3328 
Q 3216 3053 3103 2787 
Q 2991 2522 2730 2228 
Q 2469 1934 1863 1422 
Q 1356 997 1212 845 
Q 1069 694 975 541 
L 3222 541 
z
" transform="scale(0.015625)"/>
       </defs>
       <use xlink:href="#ArialMT-31" transform="translate(0 0.99375)"/>
       <use xlink:href="#ArialMT-30" transform="translate(55.615234 0.99375)"/>
       <use xlink:href="#ArialMT-32" transform="translate(112.972813 70.6875) scale(0.7)"/>
      </g>
     </g>
    </g>
    <g id="xtick_4">
     <g id="line2d_4">
      <path d="M 397.34146 306.617687 
L 397.34146 12.96 
" clip-path="url(#p4d51b058fe)" style="fill: none; stroke: #cccccc; stroke-linecap: round"/>
     </g>
     <g id="text_4">
      <!-- $\mathdefault{10^{3}}$ -->
      <g style="fill: #262626" transform="translate(388.70646 327.461437) scale(0.11 -0.11)">
       <defs>
        <path id="ArialMT-33" d="M 269 1209 
L 831 1284 
Q 928 806 1161 595 
Q 1394 384 1728 384 
Q 2125 384 2398 659 
Q 2672 934 2672 1341 
Q 2672 1728 2419 1979 
Q 2166 2231 1775 2231 
Q 1616 2231 1378 2169 
L 1441 2663 
Q 1497 2656 1531 2656 
Q 1891 2656 2178 2843 
Q 2466 3031 2466 3422 
Q 2466 3731 2256 3934 
Q 2047 4138 1716 4138 
Q 1388 4138 1169 3931 
Q 950 3725 888 3313 
L 325 3413 
Q 428 3978 793 4289 
Q 1159 4600 1703 4600 
Q 2078 4600 2393 4439 
Q 2709 4278 2876 4000 
Q 3044 3722 3044 3409 
Q 3044 3113 2884 2869 
Q 2725 2625 2413 2481 
Q 2819 2388 3044 2092 
Q 3269 1797 3269 1353 
Q 3269 753 2831 336 
Q 2394 -81 1725 -81 
Q 1122 -81 723 278 
Q 325 638 269 1209 
z
" transform="scale(0.015625)"/>
       </defs>
       <use xlink:href="#ArialMT-31" transform="translate(0 0.99375)"/>
       <use xlink:href="#ArialMT-30" transform="translate(55.615234 0.99375)"/>
       <use xlink:href="#ArialMT-33" transform="translate(112.972813 70.6875) scale(0.7)"/>
      </g>
     </g>
    </g>
    <g id="xtick_5"/>
    <g id="xtick_6"/>
    <g id="xtick_7"/>
    <g id="xtick_8"/>
    <g id="xtick_9"/>
    <g id="xtick_10"/>
    <g id="xtick_11"/>
    <g id="xtick_12"/>
    <g id="xtick_13"/>
    <g id="xtick_14"/>
    <g id="xtick_15"/>
    <g id="xtick_16"/>
    <g id="xtick_17"/>
    <g id="xtick_18"/>
    <g id="xtick_19"/>
    <g id="xtick_20"/>
    <g id="xtick_21"/>
    <g id="xtick_22"/>
    <g id="xtick_23"/>
    <g id="xtick_24"/>
    <g id="xtick_25"/>
    <g id="xtick_26"/>
    <g id="xtick_27"/>
    <g id="xtick_28"/>
    <g id="xtick_29"/>
    <g id="xtick_30"/>
    <g id="xtick_31"/>
    <g id="xtick_32"/>
   </g>
   <g id="matplotlib.axis_2">
    <g id="ytick_1"/>
    <g id="ytick_2"/>
   </g>
   <g id="patch_3">
    <path d="M -121505.335093 86.374422 
L -121505.335093 86.374422 
L -121505.335093 86.374422 
L -121505.335093 86.374422 
z
" clip-path="url(#p4d51b058fe)" style="fill: #5caa56; stroke: #474747; stroke-width: 0.5; stroke-linejoin: miter"/>
   </g>
   <g id="patch_4">
    <path d="M -121505.335093 86.374422 
L -121505.335093 86.374422 
L -121505.335093 86.374422 
L -121505.335093 86.374422 
z
" clip-path="url(#p4d51b058fe)" style="fill: #5671a7; stroke: #474747; stroke-width: 0.5; stroke-linejoin: miter"/>
   </g>
   <g id="patch_5">
    <path d="M -121505.335093 86.374422 
L -121505.335093 86.374422 
L -121505.335093 86.374422 
L -121505.335093 86.374422 
z
" clip-path="url(#p4d51b058fe)" style="fill: #8c5894; stroke: #474747; stroke-width: 0.5; stroke-linejoin: miter"/>
   </g>
   <g id="patch_6">
    <path d="M -121505.335093 86.374422 
L -121505.335093 86.374422 
L -121505.335093 86.374422 
L -121505.335093 86.374422 
z
" clip-path="url(#p4d51b058fe)" style="fill: #be5e46; stroke: #474747; stroke-width: 0.5; stroke-linejoin: miter"/>
   </g>
   <g id="patch_7">
    <path d="M 32.727273 27.642884 
L 32.727273 57.008653 
L 69.313875 57.008653 
L 69.313875 27.642884 
L 32.727273 27.642884 
z
" clip-path="url(#p4d51b058fe)" style="fill: #5caa56; stroke: #474747; stroke-width: 0.5; stroke-linejoin: miter"/>
   </g>
   <g id="line2d_5">
    <path d="M 32.727273 42.325769 
L 32.727273 42.325769 
" clip-path="url(#p4d51b058fe)" style="fill: none; stroke: #474747"/>
   </g>
   <g id="line2d_6">
    <path d="M 69.313875 42.325769 
L 90.715666 42.325769 
" clip-path="url(#p4d51b058fe)" style="fill: none; stroke: #474747"/>
   </g>
   <g id="line2d_7">
    <path d="M 32.727273 34.984327 
L 32.727273 49.667211 
" clip-path="url(#p4d51b058fe)" style="fill: none; stroke: #474747; stroke-linecap: round"/>
   </g>
   <g id="line2d_8">
    <path d="M 90.715666 34.984327 
L 90.715666 49.667211 
" clip-path="url(#p4d51b058fe)" style="fill: none; stroke: #474747; stroke-linecap: round"/>
   </g>
   <g id="line2d_9">
    <defs>
     <path id="mf8ce4fa05e" d="M 0 3 
C 0.795609 3 1.55874 2.683901 2.12132 2.12132 
C 2.683901 1.55874 3 0.795609 3 0 
C 3 -0.795609 2.683901 -1.55874 2.12132 -2.12132 
C 1.55874 -2.683901 0.795609 -3 0 -3 
C -0.795609 -3 -1.55874 -2.683901 -2.12132 -2.12132 
C -2.683901 -1.55874 -3 -0.795609 -3 0 
C -3 0.795609 -2.683901 1.55874 -2.12132 2.12132 
C -1.55874 2.683901 -0.795609 3 0 3 
z
" style="stroke: #474747"/>
    </defs>
    <g clip-path="url(#p4d51b058fe)">
     <use xlink:href="#mf8ce4fa05e" x="105.900478" y="42.325769" style="fill-opacity: 0; stroke: #474747"/>
     <use xlink:href="#mf8ce4fa05e" x="105.900478" y="42.325769" style="fill-opacity: 0; stroke: #474747"/>
     <use xlink:href="#mf8ce4fa05e" x="105.900478" y="42.325769" style="fill-opacity: 0; stroke: #474747"/>
    </g>
   </g>
   <g id="patch_8">
    <path d="M 109.100446 174.471728 
L 109.100446 203.837497 
L 142.48708 203.837497 
L 142.48708 174.471728 
L 109.100446 174.471728 
z
" clip-path="url(#p4d51b058fe)" style="fill: #5caa56; stroke: #474747; stroke-width: 0.5; stroke-linejoin: miter"/>
   </g>
   <g id="line2d_10">
    <path d="M 109.100446 189.154612 
L 32.727273 189.154612 
" clip-path="url(#p4d51b058fe)" style="fill: none; stroke: #474747"/>
   </g>
   <g id="line2d_11">
    <path d="M 142.48708 189.154612 
L 168.113789 189.154612 
" clip-path="url(#p4d51b058fe)" style="fill: none; stroke: #474747"/>
   </g>
   <g id="line2d_12">
    <path d="M 32.727273 181.81317 
L 32.727273 196.496055 
" clip-path="url(#p4d51b058fe)" style="fill: none; stroke: #474747; stroke-linecap: round"/>
   </g>
   <g id="line2d_13">
    <path d="M 168.113789 181.81317 
L 168.113789 196.496055 
" clip-path="url(#p4d51b058fe)" style="fill: none; stroke: #474747; stroke-linecap: round"/>
   </g>
   <g id="line2d_14">
    <g clip-path="url(#p4d51b058fe)">
     <use xlink:href="#mf8ce4fa05e" x="182.27365" y="189.154612" style="fill-opacity: 0; stroke: #474747"/>
    </g>
   </g>
   <g id="patch_9">
    <path d="M 176.539597 57.008653 
L 176.539597 86.374422 
L 211.812024 86.374422 
L 211.812024 57.008653 
L 176.539597 57.008653 
z
" clip-path="url(#p4d51b058fe)" style="fill: #5671a7; stroke: #474747; stroke-width: 0.5; stroke-linejoin: miter"/>
   </g>
   <g id="line2d_15">
    <path d="M 176.539597 71.691537 
L 117.678733 71.691537 
" clip-path="url(#p4d51b058fe)" style="fill: none; stroke: #474747"/>
   </g>
   <g id="line2d_16">
    <path d="M 211.812024 71.691537 
L 240.262043 71.691537 
" clip-path="url(#p4d51b058fe)" style="fill: none; stroke: #474747"/>
   </g>
   <g id="line2d_17">
    <path d="M 117.678733 64.350095 
L 117.678733 79.03298 
" clip-path="url(#p4d51b058fe)" style="fill: none; stroke: #474747; stroke-linecap: round"/>
   </g>
   <g id="line2d_18">
    <path d="M 240.262043 64.350095 
L 240.262043 79.03298 
" clip-path="url(#p4d51b058fe)" style="fill: none; stroke: #474747; stroke-linecap: round"/>
   </g>
   <g id="line2d_19">
    <g clip-path="url(#p4d51b058fe)">
     <use xlink:href="#mf8ce4fa05e" x="244.247582" y="71.691537" style="fill-opacity: 0; stroke: #474747"/>
     <use xlink:href="#mf8ce4fa05e" x="242.292421" y="71.691537" style="fill-opacity: 0; stroke: #474747"/>
     <use xlink:href="#mf8ce4fa05e" x="241.286994" y="71.691537" style="fill-opacity: 0; stroke: #474747"/>
     <use xlink:href="#mf8ce4fa05e" x="243.279054" y="71.691537" style="fill-opacity: 0; stroke: #474747"/>
     <use xlink:href="#mf8ce4fa05e" x="247.050894" y="71.691537" style="fill-opacity: 0; stroke: #474747"/>
    </g>
   </g>
   <g id="patch_10">
    <path d="M 117.678733 203.837497 
L 117.678733 233.203266 
L 117.678733 233.203266 
L 117.678733 203.837497 
L 117.678733 203.837497 
z
" clip-path="url(#p4d51b058fe)" style="fill: #5671a7; stroke: #474747; stroke-width: 0.5; stroke-linejoin: miter"/>
   </g>
   <g id="line2d_20">
    <path d="M 117.678733 218.520381 
L 117.678733 218.520381 
" clip-path="url(#p4d51b058fe)" style="fill: none; stroke: #474747"/>
   </g>
   <g id="line2d_21">
    <path d="M 117.678733 218.520381 
L 117.678733 218.520381 
" clip-path="url(#p4d51b058fe)" style="fill: none; stroke: #474747"/>
   </g>
   <g id="line2d_22">
    <path d="M 117.678733 211.178939 
L 117.678733 225.861823 
" clip-path="url(#p4d51b058fe)" style="fill: none; stroke: #474747; stroke-linecap: round"/>
   </g>
   <g id="line2d_23">
    <path d="M 117.678733 211.178939 
L 117.678733 225.861823 
" clip-path="url(#p4d51b058fe)" style="fill: none; stroke: #474747; stroke-linecap: round"/>
   </g>
   <g id="line2d_24">
    <g clip-path="url(#p4d51b058fe)">
     <use xlink:href="#mf8ce4fa05e" x="105.900478" y="218.520381" style="fill-opacity: 0; stroke: #474747"/>
     <use xlink:href="#mf8ce4fa05e" x="69.313875" y="218.520381" style="fill-opacity: 0; stroke: #474747"/>
     <use xlink:href="#mf8ce4fa05e" x="105.900478" y="218.520381" style="fill-opacity: 0; stroke: #474747"/>
     <use xlink:href="#mf8ce4fa05e" x="105.900478" y="218.520381" style="fill-opacity: 0; stroke: #474747"/>
     <use xlink:href="#mf8ce4fa05e" x="105.900478" y="218.520381" style="fill-opacity: 0; stroke: #474747"/>
     <use xlink:href="#mf8ce4fa05e" x="105.900478" y="218.520381" style="fill-opacity: 0; stroke: #474747"/>
     <use xlink:href="#mf8ce4fa05e" x="105.900478" y="218.520381" style="fill-opacity: 0; stroke: #474747"/>
     <use xlink:href="#mf8ce4fa05e" x="69.313875" y="218.520381" style="fill-opacity: 0; stroke: #474747"/>
     <use xlink:href="#mf8ce4fa05e" x="105.900478" y="218.520381" style="fill-opacity: 0; stroke: #474747"/>
     <use xlink:href="#mf8ce4fa05e" x="32.727273" y="218.520381" style="fill-opacity: 0; stroke: #474747"/>
     <use xlink:href="#mf8ce4fa05e" x="127.302268" y="218.520381" style="fill-opacity: 0; stroke: #474747"/>
     <use xlink:href="#mf8ce4fa05e" x="127.302268" y="218.520381" style="fill-opacity: 0; stroke: #474747"/>
     <use xlink:href="#mf8ce4fa05e" x="127.302268" y="218.520381" style="fill-opacity: 0; stroke: #474747"/>
     <use xlink:href="#mf8ce4fa05e" x="127.302268" y="218.520381" style="fill-opacity: 0; stroke: #474747"/>
     <use xlink:href="#mf8ce4fa05e" x="127.302268" y="218.520381" style="fill-opacity: 0; stroke: #474747"/>
     <use xlink:href="#mf8ce4fa05e" x="127.302268" y="218.520381" style="fill-opacity: 0; stroke: #474747"/>
     <use xlink:href="#mf8ce4fa05e" x="142.48708" y="218.520381" style="fill-opacity: 0; stroke: #474747"/>
     <use xlink:href="#mf8ce4fa05e" x="127.302268" y="218.520381" style="fill-opacity: 0; stroke: #474747"/>
     <use xlink:href="#mf8ce4fa05e" x="127.302268" y="218.520381" style="fill-opacity: 0; stroke: #474747"/>
     <use xlink:href="#mf8ce4fa05e" x="127.302268" y="218.520381" style="fill-opacity: 0; stroke: #474747"/>
     <use xlink:href="#mf8ce4fa05e" x="127.302268" y="218.520381" style="fill-opacity: 0; stroke: #474747"/>
     <use xlink:href="#mf8ce4fa05e" x="135.438851" y="218.520381" style="fill-opacity: 0; stroke: #474747"/>
     <use xlink:href="#mf8ce4fa05e" x="127.302268" y="218.520381" style="fill-opacity: 0; stroke: #474747"/>
     <use xlink:href="#mf8ce4fa05e" x="127.302268" y="218.520381" style="fill-opacity: 0; stroke: #474747"/>
     <use xlink:href="#mf8ce4fa05e" x="127.302268" y="218.520381" style="fill-opacity: 0; stroke: #474747"/>
     <use xlink:href="#mf8ce4fa05e" x="142.48708" y="218.520381" style="fill-opacity: 0; stroke: #474747"/>
     <use xlink:href="#mf8ce4fa05e" x="127.302268" y="218.520381" style="fill-opacity: 0; stroke: #474747"/>
    </g>
   </g>
   <g id="patch_11">
    <path d="M 179.073682 86.374422 
L 179.073682 115.740191 
L 211.812024 115.740191 
L 211.812024 86.374422 
L 179.073682 86.374422 
z
" clip-path="url(#p4d51b058fe)" style="fill: #8c5894; stroke: #474747; stroke-width: 0.5; stroke-linejoin: miter"/>
   </g>
   <g id="line2d_25">
    <path d="M 179.073682 101.057306 
L 142.48708 101.057306 
" clip-path="url(#p4d51b058fe)" style="fill: none; stroke: #474747"/>
   </g>
   <g id="line2d_26">
    <path d="M 211.812024 101.057306 
L 237.062075 101.057306 
" clip-path="url(#p4d51b058fe)" style="fill: none; stroke: #474747"/>
   </g>
   <g id="line2d_27">
    <path d="M 142.48708 93.715864 
L 142.48708 108.398748 
" clip-path="url(#p4d51b058fe)" style="fill: none; stroke: #474747; stroke-linecap: round"/>
   </g>
   <g id="line2d_28">
    <path d="M 237.062075 93.715864 
L 237.062075 108.398748 
" clip-path="url(#p4d51b058fe)" style="fill: none; stroke: #474747; stroke-linecap: round"/>
   </g>
   <g id="line2d_29">
    <g clip-path="url(#p4d51b058fe)">
     <use xlink:href="#mf8ce4fa05e" x="245.198658" y="101.057306" style="fill-opacity: 0; stroke: #474747"/>
     <use xlink:href="#mf8ce4fa05e" x="243.279054" y="101.057306" style="fill-opacity: 0; stroke: #474747"/>
     <use xlink:href="#mf8ce4fa05e" x="241.286994" y="101.057306" style="fill-opacity: 0; stroke: #474747"/>
     <use xlink:href="#mf8ce4fa05e" x="243.279054" y="101.057306" style="fill-opacity: 0; stroke: #474747"/>
     <use xlink:href="#mf8ce4fa05e" x="245.198658" y="101.057306" style="fill-opacity: 0; stroke: #474747"/>
     <use xlink:href="#mf8ce4fa05e" x="248.84033" y="101.057306" style="fill-opacity: 0; stroke: #474747"/>
     <use xlink:href="#mf8ce4fa05e" x="241.286994" y="101.057306" style="fill-opacity: 0; stroke: #474747"/>
    </g>
   </g>
   <g id="patch_12">
    <path d="M 142.48708 233.203266 
L 142.48708 262.569034 
L 163.88887 262.569034 
L 163.88887 233.203266 
L 142.48708 233.203266 
z
" clip-path="url(#p4d51b058fe)" style="fill: #8c5894; stroke: #474747; stroke-width: 0.5; stroke-linejoin: miter"/>
   </g>
   <g id="line2d_30">
    <path d="M 142.48708 247.88615 
L 69.313875 247.88615 
" clip-path="url(#p4d51b058fe)" style="fill: none; stroke: #474747"/>
   </g>
   <g id="line2d_31">
    <path d="M 163.88887 247.88615 
L 185.290661 247.88615 
" clip-path="url(#p4d51b058fe)" style="fill: none; stroke: #474747"/>
   </g>
   <g id="line2d_32">
    <path d="M 69.313875 240.544708 
L 69.313875 255.227592 
" clip-path="url(#p4d51b058fe)" style="fill: none; stroke: #474747; stroke-linecap: round"/>
   </g>
   <g id="line2d_33">
    <path d="M 185.290661 240.544708 
L 185.290661 255.227592 
" clip-path="url(#p4d51b058fe)" style="fill: none; stroke: #474747; stroke-linecap: round"/>
   </g>
   <g id="line2d_34">
    <g clip-path="url(#p4d51b058fe)">
     <use xlink:href="#mf8ce4fa05e" x="200.475473" y="247.88615" style="fill-opacity: 0; stroke: #474747"/>
    </g>
   </g>
   <g id="patch_13">
    <path d="M 215.660285 115.740191 
L 215.660285 145.105959 
L 263.026059 145.105959 
L 263.026059 115.740191 
L 215.660285 115.740191 
z
" clip-path="url(#p4d51b058fe)" style="fill: #be5e46; stroke: #474747; stroke-width: 0.5; stroke-linejoin: miter"/>
   </g>
   <g id="line2d_35">
    <path d="M 215.660285 130.423075 
L 185.290661 130.423075 
" clip-path="url(#p4d51b058fe)" style="fill: none; stroke: #474747"/>
   </g>
   <g id="line2d_36">
    <path d="M 263.026059 130.423075 
L 293.563516 130.423075 
" clip-path="url(#p4d51b058fe)" style="fill: none; stroke: #474747"/>
   </g>
   <g id="line2d_37">
    <path d="M 185.290661 123.081633 
L 185.290661 137.764517 
" clip-path="url(#p4d51b058fe)" style="fill: none; stroke: #474747; stroke-linecap: round"/>
   </g>
   <g id="line2d_38">
    <path d="M 293.563516 123.081633 
L 293.563516 137.764517 
" clip-path="url(#p4d51b058fe)" style="fill: none; stroke: #474747; stroke-linecap: round"/>
   </g>
   <g id="line2d_39">
    <g clip-path="url(#p4d51b058fe)">
     <use xlink:href="#mf8ce4fa05e" x="314.965306" y="130.423075" style="fill-opacity: 0; stroke: #474747"/>
     <use xlink:href="#mf8ce4fa05e" x="338.662385" y="130.423075" style="fill-opacity: 0; stroke: #474747"/>
     <use xlink:href="#mf8ce4fa05e" x="363.730798" y="130.423075" style="fill-opacity: 0; stroke: #474747"/>
     <use xlink:href="#mf8ce4fa05e" x="428.072727" y="130.423075" style="fill-opacity: 0; stroke: #474747"/>
     <use xlink:href="#mf8ce4fa05e" x="343.561743" y="130.423075" style="fill-opacity: 0; stroke: #474747"/>
     <use xlink:href="#mf8ce4fa05e" x="401.305881" y="130.423075" style="fill-opacity: 0; stroke: #474747"/>
     <use xlink:href="#mf8ce4fa05e" x="299.612662" y="130.423075" style="fill-opacity: 0; stroke: #474747"/>
     <use xlink:href="#mf8ce4fa05e" x="401.890204" y="130.423075" style="fill-opacity: 0; stroke: #474747"/>
    </g>
   </g>
   <g id="patch_14">
    <path d="M 32.727273 262.569034 
L 32.727273 291.934803 
L 90.715666 291.934803 
L 90.715666 262.569034 
L 32.727273 262.569034 
z
" clip-path="url(#p4d51b058fe)" style="fill: #be5e46; stroke: #474747; stroke-width: 0.5; stroke-linejoin: miter"/>
   </g>
   <g id="line2d_40">
    <path d="M 32.727273 277.251919 
L 32.727273 277.251919 
" clip-path="url(#p4d51b058fe)" style="fill: none; stroke: #474747"/>
   </g>
   <g id="line2d_41">
    <path d="M 90.715666 277.251919 
L 105.900478 277.251919 
" clip-path="url(#p4d51b058fe)" style="fill: none; stroke: #474747"/>
   </g>
   <g id="line2d_42">
    <path d="M 32.727273 269.910477 
L 32.727273 284.593361 
" clip-path="url(#p4d51b058fe)" style="fill: none; stroke: #474747; stroke-linecap: round"/>
   </g>
   <g id="line2d_43">
    <path d="M 105.900478 269.910477 
L 105.900478 284.593361 
" clip-path="url(#p4d51b058fe)" style="fill: none; stroke: #474747; stroke-linecap: round"/>
   </g>
   <g id="line2d_44"/>
   <g id="line2d_45">
    <path d="M 69.313875 27.642884 
L 69.313875 57.008653 
" clip-path="url(#p4d51b058fe)" style="fill: none; stroke: #474747"/>
   </g>
   <g id="line2d_46">
    <path d="M 127.302268 174.471728 
L 127.302268 203.837497 
" clip-path="url(#p4d51b058fe)" style="fill: none; stroke: #474747"/>
   </g>
   <g id="line2d_47">
    <path d="M 194.669261 57.008653 
L 194.669261 86.374422 
" clip-path="url(#p4d51b058fe)" style="fill: none; stroke: #474747"/>
   </g>
   <g id="line2d_48">
    <path d="M 117.678733 203.837497 
L 117.678733 233.203266 
" clip-path="url(#p4d51b058fe)" style="fill: none; stroke: #474747"/>
   </g>
   <g id="line2d_49">
    <path d="M 195.882724 86.374422 
L 195.882724 115.740191 
" clip-path="url(#p4d51b058fe)" style="fill: none; stroke: #474747"/>
   </g>
   <g id="line2d_50">
    <path d="M 154.265335 233.203266 
L 154.265335 262.569034 
" clip-path="url(#p4d51b058fe)" style="fill: none; stroke: #474747"/>
   </g>
   <g id="line2d_51">
    <path d="M 241.286994 115.740191 
L 241.286994 145.105959 
" clip-path="url(#p4d51b058fe)" style="fill: none; stroke: #474747"/>
   </g>
   <g id="line2d_52">
    <path d="M 32.727273 262.569034 
L 32.727273 291.934803 
" clip-path="url(#p4d51b058fe)" style="fill: none; stroke: #474747"/>
   </g>
   <g id="patch_15">
    <path d="M 12.96 306.617687 
L 12.96 12.96 
" style="fill: none; stroke: #cccccc; stroke-width: 1.25; stroke-linejoin: miter; stroke-linecap: square"/>
   </g>
   <g id="patch_16">
    <path d="M 447.84 306.617687 
L 447.84 12.96 
" style="fill: none; stroke: #cccccc; stroke-width: 1.25; stroke-linejoin: miter; stroke-linecap: square"/>
   </g>
   <g id="patch_17">
    <path d="M 12.96 306.617687 
L 447.84 306.617687 
" style="fill: none; stroke: #cccccc; stroke-width: 1.25; stroke-linejoin: miter; stroke-linecap: square"/>
   </g>
   <g id="patch_18">
    <path d="M 12.96 12.96 
L 447.84 12.96 
" style="fill: none; stroke: #cccccc; stroke-width: 1.25; stroke-linejoin: miter; stroke-linecap: square"/>
   </g>
   <g id="legend_1"/>
  </g>
 </g>
 <defs>
  <clipPath id="p4d51b058fe">
   <rect x="12.96" y="12.96" width="434.88" height="293.657687"/>
  </clipPath>
 </defs>
</svg>
