<?xml version="1.0" encoding="UTF-8"?>
<svg id="Layer_1" data-name="Layer 1" xmlns="http://www.w3.org/2000/svg" xmlns:xlink="http://www.w3.org/1999/xlink" viewBox="0 0 460.8 345.6">
  <defs>
    <style>
      .cls-1, .cls-2, .cls-3, .cls-4, .cls-5, .cls-6, .cls-7 {
        fill: none;
      }

      .cls-1, .cls-3, .cls-5 {
        stroke-linejoin: round;
      }

      .cls-1, .cls-3, .cls-7 {
        stroke: #4c4c4c;
      }

      .cls-8 {
        clip-path: url(#clippath);
      }

      .cls-2, .cls-9, .cls-10, .cls-11, .cls-12, .cls-13, .cls-14, .cls-15 {
        stroke-width: 0px;
      }

      .cls-9, .cls-4 {
        opacity: .8;
      }

      .cls-9, .cls-15 {
        fill: #fff;
      }

      .cls-16 {
        clip-path: url(#clippath-1);
      }

      .cls-17 {
        clip-path: url(#clippath-3);
      }

      .cls-18 {
        clip-path: url(#clippath-2);
      }

      .cls-19 {
        clip-path: url(#clippath-8);
      }

      .cls-3, .cls-5 {
        stroke-linecap: round;
      }

      .cls-10 {
        fill: #5975a3;
      }

      .cls-20 {
        clip-path: url(#clippath-60);
      }

      .cls-21 {
        clip-path: url(#clippath-69);
      }

      .cls-22 {
        clip-path: url(#clippath-21);
      }

      .cls-23 {
        clip-path: url(#clippath-24);
      }

      .cls-24 {
        clip-path: url(#clippath-23);
      }

      .cls-25 {
        clip-path: url(#clippath-22);
      }

      .cls-26 {
        clip-path: url(#clippath-25);
      }

      .cls-27 {
        clip-path: url(#clippath-44);
      }

      .cls-28 {
        clip-path: url(#clippath-45);
      }

      .cls-29 {
        clip-path: url(#clippath-40);
      }

      .cls-30 {
        clip-path: url(#clippath-42);
      }

      .cls-31 {
        clip-path: url(#clippath-41);
      }

      .cls-32 {
        clip-path: url(#clippath-47);
      }

      .cls-33 {
        clip-path: url(#clippath-43);
      }

      .cls-34 {
        clip-path: url(#clippath-46);
      }

      .cls-35 {
        clip-path: url(#clippath-48);
      }

      .cls-36 {
        clip-path: url(#clippath-49);
      }

      .cls-37 {
        clip-path: url(#clippath-84);
      }

      .cls-38 {
        clip-path: url(#clippath-88);
      }

      .cls-39 {
        clip-path: url(#clippath-86);
      }

      .cls-40 {
        clip-path: url(#clippath-81);
      }

      .cls-41 {
        clip-path: url(#clippath-83);
      }

      .cls-42 {
        clip-path: url(#clippath-85);
      }

      .cls-43 {
        clip-path: url(#clippath-80);
      }

      .cls-44 {
        clip-path: url(#clippath-87);
      }

      .cls-45 {
        clip-path: url(#clippath-82);
      }

      .cls-46 {
        clip-path: url(#clippath-98);
      }

      .cls-47 {
        clip-path: url(#clippath-89);
      }

      .cls-48 {
        clip-path: url(#clippath-27);
      }

      .cls-49 {
        clip-path: url(#clippath-28);
      }

      .cls-50 {
        clip-path: url(#clippath-26);
      }

      .cls-51 {
        clip-path: url(#clippath-29);
      }

      .cls-52 {
        clip-path: url(#clippath-34);
      }

      .cls-53 {
        clip-path: url(#clippath-37);
      }

      .cls-54 {
        clip-path: url(#clippath-39);
      }

      .cls-55 {
        clip-path: url(#clippath-33);
      }

      .cls-56 {
        clip-path: url(#clippath-32);
      }

      .cls-57 {
        clip-path: url(#clippath-30);
      }

      .cls-58 {
        clip-path: url(#clippath-38);
      }

      .cls-59 {
        clip-path: url(#clippath-31);
      }

      .cls-60 {
        clip-path: url(#clippath-95);
      }

      .cls-61 {
        clip-path: url(#clippath-99);
      }

      .cls-62 {
        clip-path: url(#clippath-93);
      }

      .cls-63 {
        clip-path: url(#clippath-94);
      }

      .cls-64 {
        clip-path: url(#clippath-91);
      }

      .cls-65 {
        clip-path: url(#clippath-96);
      }

      .cls-66 {
        clip-path: url(#clippath-90);
      }

      .cls-67 {
        clip-path: url(#clippath-92);
      }

      .cls-68 {
        clip-path: url(#clippath-97);
      }

      .cls-69 {
        clip-path: url(#clippath-53);
      }

      .cls-70 {
        clip-path: url(#clippath-54);
      }

      .cls-71 {
        clip-path: url(#clippath-50);
      }

      .cls-72 {
        clip-path: url(#clippath-51);
      }

      .cls-73 {
        clip-path: url(#clippath-52);
      }

      .cls-74 {
        clip-path: url(#clippath-55);
      }

      .cls-75 {
        clip-path: url(#clippath-56);
      }

      .cls-76 {
        clip-path: url(#clippath-57);
      }

      .cls-77 {
        clip-path: url(#clippath-58);
      }

      .cls-78 {
        clip-path: url(#clippath-79);
      }

      .cls-79 {
        clip-path: url(#clippath-61);
      }

      .cls-80 {
        clip-path: url(#clippath-64);
      }

      .cls-81 {
        clip-path: url(#clippath-62);
      }

      .cls-82 {
        clip-path: url(#clippath-68);
      }

      .cls-83 {
        clip-path: url(#clippath-67);
      }

      .cls-84 {
        clip-path: url(#clippath-73);
      }

      .cls-85 {
        clip-path: url(#clippath-59);
      }

      .cls-86 {
        clip-path: url(#clippath-65);
      }

      .cls-87 {
        clip-path: url(#clippath-63);
      }

      .cls-88 {
        clip-path: url(#clippath-66);
      }

      .cls-89 {
        clip-path: url(#clippath-70);
      }

      .cls-90 {
        clip-path: url(#clippath-75);
      }

      .cls-91 {
        clip-path: url(#clippath-72);
      }

      .cls-92 {
        clip-path: url(#clippath-78);
      }

      .cls-93 {
        clip-path: url(#clippath-71);
      }

      .cls-94 {
        clip-path: url(#clippath-77);
      }

      .cls-95 {
        clip-path: url(#clippath-74);
      }

      .cls-96 {
        clip-path: url(#clippath-76);
      }

      .cls-97 {
        clip-path: url(#clippath-14);
      }

      .cls-98 {
        clip-path: url(#clippath-13);
      }

      .cls-99 {
        clip-path: url(#clippath-12);
      }

      .cls-100 {
        clip-path: url(#clippath-10);
      }

      .cls-101 {
        clip-path: url(#clippath-15);
      }

      .cls-102 {
        clip-path: url(#clippath-17);
      }

      .cls-103 {
        clip-path: url(#clippath-16);
      }

      .cls-104 {
        clip-path: url(#clippath-19);
      }

      .cls-105 {
        clip-path: url(#clippath-18);
      }

      .cls-11 {
        fill: #5f9e6e;
      }

      .cls-4, .cls-5, .cls-6 {
        stroke: #ccc;
      }

      .cls-4, .cls-6, .cls-7 {
        stroke-miterlimit: 10;
      }

      .cls-12 {
        fill: #262626;
      }

      .cls-13 {
        fill: #cc8963;
      }

      .cls-6 {
        stroke-linecap: square;
        stroke-width: 1.25px;
      }

      .cls-14 {
        fill: #b55d60;
      }

      .cls-106 {
        clip-path: url(#clippath-110);
      }

      .cls-107 {
        clip-path: url(#clippath-105);
      }

      .cls-108 {
        clip-path: url(#clippath-103);
      }

      .cls-109 {
        clip-path: url(#clippath-107);
      }

      .cls-110 {
        clip-path: url(#clippath-109);
      }

      .cls-111 {
        clip-path: url(#clippath-104);
      }

      .cls-112 {
        clip-path: url(#clippath-101);
      }

      .cls-113 {
        clip-path: url(#clippath-108);
      }

      .cls-114 {
        clip-path: url(#clippath-106);
      }
    </style>
    <clipPath id="clippath">
      <rect class="cls-2" x="81.27" y="12.96" width="366.57" height="278.8"/>
    </clipPath>
    <clipPath id="clippath-1">
      <rect class="cls-2" x="81.27" y="12.96" width="366.57" height="278.8"/>
    </clipPath>
    <clipPath id="clippath-2">
      <rect class="cls-2" x="81.27" y="12.96" width="366.57" height="278.8"/>
    </clipPath>
    <clipPath id="clippath-3">
      <rect class="cls-2" x="81.27" y="12.96" width="366.57" height="278.8"/>
    </clipPath>
    <clipPath id="clippath-8">
      <rect class="cls-2" x="81.27" y="12.96" width="366.57" height="278.8"/>
    </clipPath>
    <clipPath id="clippath-10">
      <rect class="cls-2" x="81.27" y="12.96" width="366.57" height="278.8"/>
    </clipPath>
    <clipPath id="clippath-12">
      <rect class="cls-2" x="81.27" y="12.96" width="366.57" height="278.8"/>
    </clipPath>
    <clipPath id="clippath-13">
      <rect class="cls-2" x="81.27" y="12.96" width="366.57" height="278.8"/>
    </clipPath>
    <clipPath id="clippath-14">
      <rect class="cls-2" x="138.82" y="32.84" width="16" height="16"/>
    </clipPath>
    <clipPath id="clippath-15">
      <rect class="cls-2" x="138.82" y="32.84" width="16" height="16"/>
    </clipPath>
    <clipPath id="clippath-16">
      <rect class="cls-2" x="138.82" y="32.84" width="16" height="16"/>
    </clipPath>
    <clipPath id="clippath-17">
      <rect class="cls-2" x="81.27" y="12.96" width="366.57" height="278.8"/>
    </clipPath>
    <clipPath id="clippath-18">
      <rect class="cls-2" x="81.27" y="12.96" width="366.57" height="278.8"/>
    </clipPath>
    <clipPath id="clippath-19">
      <rect class="cls-2" x="81.27" y="12.96" width="366.57" height="278.8"/>
    </clipPath>
    <clipPath id="clippath-21">
      <rect class="cls-2" x="81.27" y="12.96" width="366.57" height="278.8"/>
    </clipPath>
    <clipPath id="clippath-22">
      <rect class="cls-2" x="81.27" y="12.96" width="366.57" height="278.8"/>
    </clipPath>
    <clipPath id="clippath-23">
      <rect class="cls-2" x="81.27" y="12.96" width="366.57" height="278.8"/>
    </clipPath>
    <clipPath id="clippath-24">
      <rect class="cls-2" x="81.27" y="12.96" width="366.57" height="278.8"/>
    </clipPath>
    <clipPath id="clippath-25">
      <rect class="cls-2" x="81.27" y="12.96" width="366.57" height="278.8"/>
    </clipPath>
    <clipPath id="clippath-26">
      <rect class="cls-2" x="81.27" y="12.96" width="366.57" height="278.8"/>
    </clipPath>
    <clipPath id="clippath-27">
      <rect class="cls-2" x="81.27" y="12.96" width="366.57" height="278.8"/>
    </clipPath>
    <clipPath id="clippath-28">
      <rect class="cls-2" x="81.27" y="12.96" width="366.57" height="278.8"/>
    </clipPath>
    <clipPath id="clippath-29">
      <rect class="cls-2" x="267.42" y="60.72" width="16" height="16"/>
    </clipPath>
    <clipPath id="clippath-30">
      <rect class="cls-2" x="265.74" y="60.72" width="16" height="16"/>
    </clipPath>
    <clipPath id="clippath-31">
      <rect class="cls-2" x="264.88" y="60.72" width="16" height="16"/>
    </clipPath>
    <clipPath id="clippath-32">
      <rect class="cls-2" x="266.59" y="60.72" width="16" height="16"/>
    </clipPath>
    <clipPath id="clippath-33">
      <rect class="cls-2" x="269.83" y="60.72" width="16" height="16"/>
    </clipPath>
    <clipPath id="clippath-34">
      <rect class="cls-2" x="81.27" y="12.96" width="366.57" height="278.8"/>
    </clipPath>
    <clipPath id="clippath-37">
      <rect class="cls-2" x="81.27" y="12.96" width="366.57" height="278.8"/>
    </clipPath>
    <clipPath id="clippath-38">
      <rect class="cls-2" x="81.27" y="12.96" width="366.57" height="278.8"/>
    </clipPath>
    <clipPath id="clippath-39">
      <rect class="cls-2" x="81.27" y="12.96" width="366.57" height="278.8"/>
    </clipPath>
    <clipPath id="clippath-40">
      <rect class="cls-2" x="138.82" y="200.12" width="16" height="16"/>
    </clipPath>
    <clipPath id="clippath-41">
      <rect class="cls-2" x="89.93" y="200.12" width="16" height="16"/>
    </clipPath>
    <clipPath id="clippath-42">
      <rect class="cls-2" x="138.82" y="200.12" width="16" height="16"/>
    </clipPath>
    <clipPath id="clippath-43">
      <rect class="cls-2" x="138.82" y="200.12" width="16" height="16"/>
    </clipPath>
    <clipPath id="clippath-44">
      <rect class="cls-2" x="138.82" y="200.12" width="16" height="16"/>
    </clipPath>
    <clipPath id="clippath-45">
      <rect class="cls-2" x="138.82" y="200.12" width="16" height="16"/>
    </clipPath>
    <clipPath id="clippath-46">
      <rect class="cls-2" x="138.82" y="200.12" width="16" height="16"/>
    </clipPath>
    <clipPath id="clippath-47">
      <rect class="cls-2" x="89.93" y="200.12" width="16" height="16"/>
    </clipPath>
    <clipPath id="clippath-48">
      <rect class="cls-2" x="138.82" y="200.12" width="16" height="16"/>
    </clipPath>
    <clipPath id="clippath-49">
      <rect class="cls-2" x="161.55" y="200.12" width="16" height="16"/>
    </clipPath>
    <clipPath id="clippath-50">
      <rect class="cls-2" x="161.55" y="200.12" width="16" height="16"/>
    </clipPath>
    <clipPath id="clippath-51">
      <rect class="cls-2" x="161.55" y="200.12" width="16" height="16"/>
    </clipPath>
    <clipPath id="clippath-52">
      <rect class="cls-2" x="161.55" y="200.12" width="16" height="16"/>
    </clipPath>
    <clipPath id="clippath-53">
      <rect class="cls-2" x="161.55" y="200.12" width="16" height="16"/>
    </clipPath>
    <clipPath id="clippath-54">
      <rect class="cls-2" x="161.55" y="200.12" width="16" height="16"/>
    </clipPath>
    <clipPath id="clippath-55">
      <rect class="cls-2" x="176.52" y="200.12" width="16" height="16"/>
    </clipPath>
    <clipPath id="clippath-56">
      <rect class="cls-2" x="161.55" y="200.12" width="16" height="16"/>
    </clipPath>
    <clipPath id="clippath-57">
      <rect class="cls-2" x="161.55" y="200.12" width="16" height="16"/>
    </clipPath>
    <clipPath id="clippath-58">
      <rect class="cls-2" x="161.55" y="200.12" width="16" height="16"/>
    </clipPath>
    <clipPath id="clippath-59">
      <rect class="cls-2" x="161.55" y="200.12" width="16" height="16"/>
    </clipPath>
    <clipPath id="clippath-60">
      <rect class="cls-2" x="169.66" y="200.12" width="16" height="16"/>
    </clipPath>
    <clipPath id="clippath-61">
      <rect class="cls-2" x="161.55" y="200.12" width="16" height="16"/>
    </clipPath>
    <clipPath id="clippath-62">
      <rect class="cls-2" x="161.55" y="200.12" width="16" height="16"/>
    </clipPath>
    <clipPath id="clippath-63">
      <rect class="cls-2" x="161.55" y="200.12" width="16" height="16"/>
    </clipPath>
    <clipPath id="clippath-64">
      <rect class="cls-2" x="176.52" y="200.12" width="16" height="16"/>
    </clipPath>
    <clipPath id="clippath-65">
      <rect class="cls-2" x="161.55" y="200.12" width="16" height="16"/>
    </clipPath>
    <clipPath id="clippath-66">
      <rect class="cls-2" x="81.27" y="12.96" width="366.57" height="278.8"/>
    </clipPath>
    <clipPath id="clippath-67">
      <rect class="cls-2" x="81.27" y="12.96" width="366.57" height="278.8"/>
    </clipPath>
    <clipPath id="clippath-68">
      <rect class="cls-2" x="81.27" y="12.96" width="366.57" height="278.8"/>
    </clipPath>
    <clipPath id="clippath-69">
      <rect class="cls-2" x="81.27" y="12.96" width="366.57" height="278.8"/>
    </clipPath>
    <clipPath id="clippath-70">
      <rect class="cls-2" x="81.27" y="12.96" width="366.57" height="278.8"/>
    </clipPath>
    <clipPath id="clippath-71">
      <rect class="cls-2" x="81.27" y="12.96" width="366.57" height="278.8"/>
    </clipPath>
    <clipPath id="clippath-72">
      <rect class="cls-2" x="268.24" y="88.6" width="16" height="16"/>
    </clipPath>
    <clipPath id="clippath-73">
      <rect class="cls-2" x="266.59" y="88.6" width="16" height="16"/>
    </clipPath>
    <clipPath id="clippath-74">
      <rect class="cls-2" x="264.88" y="88.6" width="16" height="16"/>
    </clipPath>
    <clipPath id="clippath-75">
      <rect class="cls-2" x="266.59" y="88.6" width="16" height="16"/>
    </clipPath>
    <clipPath id="clippath-76">
      <rect class="cls-2" x="268.24" y="88.6" width="16" height="16"/>
    </clipPath>
    <clipPath id="clippath-77">
      <rect class="cls-2" x="271.36" y="88.6" width="16" height="16"/>
    </clipPath>
    <clipPath id="clippath-78">
      <rect class="cls-2" x="264.88" y="88.6" width="16" height="16"/>
    </clipPath>
    <clipPath id="clippath-79">
      <rect class="cls-2" x="81.27" y="12.96" width="366.57" height="278.8"/>
    </clipPath>
    <clipPath id="clippath-80">
      <rect class="cls-2" x="81.27" y="12.96" width="366.57" height="278.8"/>
    </clipPath>
    <clipPath id="clippath-81">
      <rect class="cls-2" x="81.27" y="12.96" width="366.57" height="278.8"/>
    </clipPath>
    <clipPath id="clippath-82">
      <rect class="cls-2" x="81.27" y="12.96" width="366.57" height="278.8"/>
    </clipPath>
    <clipPath id="clippath-83">
      <rect class="cls-2" x="81.27" y="12.96" width="366.57" height="278.8"/>
    </clipPath>
    <clipPath id="clippath-84">
      <rect class="cls-2" x="81.27" y="12.96" width="366.57" height="278.8"/>
    </clipPath>
    <clipPath id="clippath-85">
      <rect class="cls-2" x="81.27" y="12.96" width="366.57" height="278.8"/>
    </clipPath>
    <clipPath id="clippath-86">
      <rect class="cls-2" x="81.27" y="12.96" width="366.57" height="278.8"/>
    </clipPath>
    <clipPath id="clippath-87">
      <rect class="cls-2" x="81.27" y="12.96" width="366.57" height="278.8"/>
    </clipPath>
    <clipPath id="clippath-88">
      <rect class="cls-2" x="81.27" y="12.96" width="366.57" height="278.8"/>
    </clipPath>
    <clipPath id="clippath-89">
      <rect class="cls-2" x="81.27" y="12.96" width="366.57" height="278.8"/>
    </clipPath>
    <clipPath id="clippath-90">
      <rect class="cls-2" x="81.27" y="12.96" width="366.57" height="278.8"/>
    </clipPath>
    <clipPath id="clippath-91">
      <rect class="cls-2" x="327.64" y="116.48" width="16" height="16"/>
    </clipPath>
    <clipPath id="clippath-92">
      <rect class="cls-2" x="347.7" y="116.48" width="16" height="16"/>
    </clipPath>
    <clipPath id="clippath-93">
      <rect class="cls-2" x="368.88" y="116.48" width="16" height="16"/>
    </clipPath>
    <clipPath id="clippath-94">
      <rect class="cls-2" x="423.18" y="116.48" width="16" height="16"/>
    </clipPath>
    <clipPath id="clippath-95">
      <rect class="cls-2" x="351.84" y="116.48" width="16" height="16"/>
    </clipPath>
    <clipPath id="clippath-96">
      <rect class="cls-2" x="400.6" y="116.48" width="16" height="16"/>
    </clipPath>
    <clipPath id="clippath-97">
      <rect class="cls-2" x="314.63" y="116.48" width="16" height="16"/>
    </clipPath>
    <clipPath id="clippath-98">
      <rect class="cls-2" x="401.09" y="116.48" width="16" height="16"/>
    </clipPath>
    <clipPath id="clippath-99">
      <rect class="cls-2" x="81.27" y="12.96" width="366.57" height="278.8"/>
    </clipPath>
    <clipPath id="clippath-101">
      <rect class="cls-2" x="81.27" y="12.96" width="366.57" height="278.8"/>
    </clipPath>
    <clipPath id="clippath-103">
      <rect class="cls-2" x="81.27" y="12.96" width="366.57" height="278.8"/>
    </clipPath>
    <clipPath id="clippath-104">
      <rect class="cls-2" x="81.27" y="12.96" width="366.57" height="278.8"/>
    </clipPath>
    <clipPath id="clippath-105">
      <rect class="cls-2" x="81.27" y="12.96" width="366.57" height="278.8"/>
    </clipPath>
    <clipPath id="clippath-106">
      <rect class="cls-2" x="81.27" y="12.96" width="366.57" height="278.8"/>
    </clipPath>
    <clipPath id="clippath-107">
      <rect class="cls-2" x="81.27" y="12.96" width="366.57" height="278.8"/>
    </clipPath>
    <clipPath id="clippath-108">
      <rect class="cls-2" x="81.27" y="12.96" width="366.57" height="278.8"/>
    </clipPath>
    <clipPath id="clippath-109">
      <rect class="cls-2" x="81.27" y="12.96" width="366.57" height="278.8"/>
    </clipPath>
    <clipPath id="clippath-110">
      <rect class="cls-2" x="81.27" y="12.96" width="366.57" height="278.8"/>
    </clipPath>
  </defs>
  <rect class="cls-15" width="460.8" height="345.6"/>
  <rect class="cls-15" x="81.27" y="12.96" width="366.57" height="278.8"/>
  <g class="cls-8">
    <line class="cls-5" x1="97.93" y1="291.76" x2="97.93" y2="12.96"/>
  </g>
  <path class="cls-12" d="M93.04,313.27h-.97v-6.16c-.24.22-.55.45-.92.67-.37.22-.71.39-1.01.5v-.94c.54-.25,1.01-.56,1.42-.92.4-.35.68-.7.86-1.06h.63v7.91Z"/>
  <path class="cls-12" d="M96.5,309.39c0,1.3.14,2.16.45,2.58.3.43.67.64,1.11.64s.81-.21,1.12-.64.46-1.29.46-2.58-.15-2.16-.46-2.58c-.31-.42-.68-.64-1.12-.64s-.8.19-1.07.56c-.33.48-.49,1.38-.49,2.66ZM95.51,309.39c0-.92.09-1.67.29-2.24.19-.57.47-1.01.85-1.32.37-.31.86-.46,1.43-.46.42,0,.79.09,1.11.26.31.18.57.42.78.74s.37.7.5,1.17c.11.46.18,1.09.18,1.86,0,.92-.1,1.67-.29,2.24-.19.57-.47,1-.85,1.31-.37.31-.86.45-1.43.45-.77,0-1.36-.26-1.79-.8-.52-.65-.77-1.72-.77-3.2Z"/>
  <path class="cls-12" d="M102.38,302.89c0,.91.1,1.51.32,1.81.21.3.47.45.78.45s.57-.15.79-.45.32-.9.32-1.81-.11-1.51-.32-1.81c-.22-.29-.48-.45-.79-.45s-.56.13-.75.39c-.23.34-.35.96-.35,1.86ZM101.68,302.89c0-.65.06-1.17.2-1.57.13-.4.33-.71.59-.92.26-.22.6-.32,1-.32.29,0,.55.06.78.18.22.12.4.29.55.52.15.22.26.49.35.82.08.32.12.76.12,1.3,0,.65-.07,1.17-.2,1.57-.13.4-.33.7-.59.92-.26.22-.6.32-1,.32-.54,0-.95-.18-1.26-.56-.36-.45-.54-1.2-.54-2.24Z"/>
  <g class="cls-16">
    <line class="cls-5" x1="200.39" y1="291.76" x2="200.39" y2="12.96"/>
  </g>
  <path class="cls-12" d="M195.49,313.27h-.97v-6.16c-.24.22-.55.45-.92.67-.37.22-.71.39-1.01.5v-.94c.54-.25,1.01-.56,1.42-.92.4-.35.68-.7.86-1.06h.63v7.91Z"/>
  <path class="cls-12" d="M198.96,309.39c0,1.3.14,2.16.45,2.58.3.43.67.64,1.11.64s.81-.21,1.12-.64.46-1.29.46-2.58-.15-2.16-.46-2.58c-.31-.42-.68-.64-1.12-.64s-.8.19-1.07.56c-.33.48-.5,1.38-.5,2.66ZM197.97,309.39c0-.92.09-1.67.29-2.24.19-.57.47-1.01.85-1.32.37-.31.86-.46,1.43-.46.42,0,.79.09,1.11.26.31.18.57.42.78.74.21.32.37.7.49,1.17.11.46.18,1.09.18,1.86,0,.92-.1,1.67-.29,2.24s-.47,1-.85,1.31c-.37.31-.86.45-1.43.45-.77,0-1.36-.26-1.79-.8-.52-.65-.77-1.72-.77-3.2Z"/>
  <path class="cls-12" d="M206.69,305.61h-.68v-4.31c-.17.15-.39.32-.65.47s-.5.27-.71.35v-.65c.38-.18.71-.39.99-.65.28-.25.48-.49.6-.74h.44v5.54Z"/>
  <g class="cls-18">
    <line class="cls-5" x1="302.84" y1="291.76" x2="302.84" y2="12.96"/>
  </g>
  <path class="cls-12" d="M297.94,313.27h-.97v-6.16c-.24.22-.55.45-.92.67-.37.22-.71.39-1.01.5v-.94c.54-.25,1.01-.56,1.42-.92.4-.35.68-.7.86-1.06h.63v7.91Z"/>
  <path class="cls-12" d="M301.41,309.39c0,1.3.14,2.16.45,2.58.3.43.67.64,1.11.64s.81-.21,1.12-.64c.31-.43.46-1.29.46-2.58s-.15-2.16-.46-2.58c-.31-.42-.68-.64-1.12-.64s-.8.19-1.07.56c-.33.48-.49,1.38-.49,2.66ZM300.42,309.39c0-.92.09-1.67.29-2.24.19-.57.47-1.01.85-1.32.37-.31.86-.46,1.43-.46.42,0,.79.09,1.11.26.31.18.57.42.78.74.21.32.37.7.49,1.17.11.46.18,1.09.18,1.86,0,.92-.1,1.67-.29,2.24s-.47,1-.85,1.31c-.37.31-.86.45-1.43.45-.77,0-1.36-.26-1.79-.8-.52-.65-.77-1.72-.77-3.2Z"/>
  <path class="cls-12" d="M310.14,304.96v.65h-3.64c0-.16.02-.32.08-.47.09-.25.24-.49.44-.73.2-.24.5-.52.89-.84.6-.49,1-.87,1.22-1.16.21-.28.32-.55.32-.82s-.1-.49-.29-.68c-.19-.18-.44-.28-.75-.28-.32,0-.59.1-.78.29-.2.2-.3.47-.3.82l-.69-.08c.05-.52.22-.91.53-1.19.31-.27.73-.41,1.26-.41s.95.15,1.26.45c.31.29.46.65.46,1.09,0,.22-.05.44-.14.65-.09.22-.24.44-.45.67-.21.24-.55.56-1.04.97-.41.34-.67.57-.79.69-.12.12-.21.25-.28.37h2.7Z"/>
  <g class="cls-17">
    <line class="cls-5" x1="405.3" y1="291.76" x2="405.3" y2="12.96"/>
  </g>
  <path class="cls-12" d="M400.4,313.27h-.97v-6.16c-.24.22-.55.45-.92.67-.37.22-.71.39-1.01.5v-.94c.54-.25,1.01-.56,1.42-.92.4-.35.68-.7.86-1.06h.63v7.91Z"/>
  <path class="cls-12" d="M403.87,309.39c0,1.3.14,2.16.45,2.58.3.43.67.64,1.11.64s.81-.21,1.12-.64c.31-.43.46-1.29.46-2.58s-.15-2.16-.46-2.58c-.31-.42-.68-.64-1.12-.64s-.8.19-1.07.56c-.33.48-.49,1.38-.49,2.66ZM402.88,309.39c0-.92.09-1.67.29-2.24.19-.57.47-1.01.85-1.32.37-.31.86-.46,1.43-.46.42,0,.79.09,1.11.26.31.18.57.42.78.74.21.32.37.7.49,1.17.11.46.18,1.09.18,1.86,0,.92-.1,1.67-.29,2.24s-.47,1-.85,1.31c-.37.31-.86.45-1.43.45-.77,0-1.36-.26-1.79-.8-.52-.65-.77-1.72-.77-3.2Z"/>
  <path class="cls-12" d="M409.05,304.15l.68-.09c.08.38.21.66.39.83.18.17.42.25.69.25.32,0,.59-.11.8-.33.22-.22.33-.49.33-.82s-.11-.57-.31-.77-.46-.31-.77-.31c-.13,0-.29.03-.48.08l.08-.59s.08,0,.11,0c.28,0,.55-.07.78-.22.23-.15.35-.38.35-.7,0-.25-.08-.45-.25-.61-.17-.16-.38-.25-.65-.25s-.49.08-.66.25c-.18.17-.28.42-.33.74l-.68-.12c.08-.45.27-.81.56-1.05s.65-.38,1.09-.38c.3,0,.58.07.83.2.25.13.44.31.58.52.14.22.21.46.21.71s-.07.46-.19.65c-.13.2-.32.35-.57.46.32.08.57.24.75.47.18.24.28.54.28.89,0,.48-.18.89-.53,1.22-.35.34-.79.5-1.32.5-.49,0-.89-.14-1.21-.43-.32-.28-.5-.65-.55-1.12Z"/>
  <path class="cls-12" d="M239.93,325.98l1.14.29c-.24.94-.67,1.66-1.3,2.14-.62.48-1.38.72-2.27.72s-1.68-.18-2.26-.55c-.59-.37-1.03-.91-1.33-1.63-.3-.72-.44-1.49-.44-2.3,0-.89.17-1.67.5-2.34.34-.67.83-1.18,1.46-1.52.62-.34,1.32-.52,2.09-.52.85,0,1.57.23,2.16.66.59.43,1,1.04,1.22,1.84l-1.12.26c-.2-.62-.49-1.07-.86-1.36-.38-.29-.85-.43-1.43-.43-.67,0-1.22.17-1.67.48s-.76.74-.94,1.27-.26,1.08-.26,1.64c0,.74.11,1.38.32,1.92.22.55.54.96,1,1.22.44.26.92.4,1.45.4.64,0,1.18-.18,1.62-.55.43-.36.73-.91.9-1.63Z"/>
  <path class="cls-12" d="M243.03,325.89c0,.79.17,1.39.52,1.79.34.4.78.59,1.31.59s.96-.19,1.31-.59c.35-.4.53-1.01.53-1.82,0-.77-.18-1.34-.53-1.75-.36-.4-.79-.6-1.31-.6s-.97.2-1.31.6c-.35.4-.52,1-.52,1.79ZM241.94,325.89c0-1.15.31-2,.96-2.57.53-.46,1.19-.68,1.96-.68.85,0,1.55.29,2.1.84.54.56.82,1.33.82,2.32,0,.8-.12,1.44-.36,1.9-.24.46-.6.82-1.06,1.07-.46.24-.96.37-1.5.37-.88,0-1.58-.28-2.11-.83-.54-.55-.8-1.36-.8-2.41Z"/>
  <path class="cls-12" d="M253.08,329v-.91c-.49.7-1.15,1.04-1.98,1.04-.37,0-.72-.07-1.03-.2s-.55-.31-.71-.53c-.16-.22-.26-.47-.32-.78-.05-.2-.06-.53-.06-.98v-3.86h1.06v3.46c0,.55.01.92.06,1.12.07.28.2.49.42.65.22.17.48.24.79.24s.61-.07.9-.24c.28-.16.47-.37.59-.66.11-.28.17-.68.17-1.22v-3.34h1.06v6.23h-.94Z"/>
  <path class="cls-12" d="M255.68,329v-6.23h.95v.89c.46-.67,1.12-1.02,1.98-1.02.37,0,.72.07,1.03.2.31.13.55.31.71.53s.26.48.32.78c.04.19.06.54.06,1.02v3.83h-1.06v-3.78c0-.43-.05-.74-.12-.96-.08-.22-.23-.38-.43-.52-.22-.12-.46-.19-.73-.19-.46,0-.85.14-1.18.43s-.48.83-.48,1.62v3.4h-1.06Z"/>
  <path class="cls-12" d="M264.65,328.05l.16.94c-.31.05-.58.08-.8.08-.38,0-.68-.06-.89-.17-.22-.12-.36-.28-.44-.48-.1-.19-.13-.61-.13-1.25v-3.58h-.77v-.83h.77v-1.54l1.04-.64v2.17h1.07v.83h-1.07v3.64c0,.31.01.5.06.59.04.08.1.16.18.2.08.05.2.07.36.07.12,0,.28-.01.47-.05Z"/>
  <path class="cls-12" d="M271.04,331.5c-.59-.73-1.08-1.58-1.48-2.56-.41-.98-.6-2-.6-3.06,0-.92.14-1.81.44-2.68.35-.98.89-1.97,1.63-2.95h.76c-.48.82-.79,1.4-.94,1.74-.24.54-.43,1.1-.56,1.69-.17.73-.25,1.46-.25,2.2,0,1.88.58,3.74,1.75,5.62h-.76Z"/>
  <polygon class="cls-12" points="273.1 329 273.1 320.4 274.24 320.4 274.24 327.99 278.48 327.99 278.48 329 273.1 329"/>
  <path class="cls-12" d="M280.38,325.89c0,.79.17,1.39.52,1.79.34.4.78.59,1.31.59s.96-.19,1.31-.59.53-1.01.53-1.82c0-.77-.18-1.34-.53-1.75-.36-.4-.79-.6-1.31-.6s-.97.2-1.31.6c-.35.4-.52,1-.52,1.79ZM279.29,325.89c0-1.15.31-2,.96-2.57.53-.46,1.19-.68,1.96-.68.85,0,1.55.29,2.1.84.54.56.82,1.33.82,2.32,0,.8-.12,1.44-.36,1.9-.24.46-.6.82-1.06,1.07-.46.24-.96.37-1.5.37-.88,0-1.58-.28-2.11-.83-.54-.55-.8-1.36-.8-2.41Z"/>
  <path class="cls-12" d="M287.04,325.77c0,.82.16,1.42.48,1.79.32.38.73.56,1.22.56s.88-.18,1.21-.55c.32-.37.49-.96.49-1.76,0-.76-.17-1.33-.5-1.72-.34-.38-.74-.59-1.22-.59s-.86.19-1.19.58c-.34.38-.49.95-.49,1.69ZM286.17,329.5l1.02.16c.05.31.17.54.36.68.26.19.61.3,1.07.3.48,0,.86-.11,1.13-.3.26-.19.46-.47.55-.82.05-.22.07-.66.07-1.34-.47.55-1.04.82-1.73.82-.86,0-1.52-.3-1.99-.92-.47-.61-.7-1.36-.7-2.22,0-.59.11-1.14.32-1.64s.53-.89.94-1.16c.41-.26.89-.41,1.44-.41.73,0,1.33.3,1.81.89v-.76h.97v5.39c0,.96-.11,1.63-.3,2.04-.19.41-.5.72-.94.96-.43.23-.95.35-1.57.35-.74,0-1.34-.17-1.8-.5-.46-.34-.68-.83-.66-1.5Z"/>
  <path class="cls-12" d="M293.73,331.5h-.76c1.16-1.87,1.75-3.73,1.75-5.62,0-.73-.08-1.46-.25-2.18-.14-.58-.32-1.14-.56-1.69-.16-.34-.47-.92-.94-1.75h.76c.72.98,1.26,1.97,1.62,2.95.3.86.46,1.75.46,2.68,0,1.06-.2,2.08-.61,3.06-.41.97-.89,1.82-1.46,2.56Z"/>
  <rect class="cls-12" x="42.51" y="78.72" width=".97" height="7.88"/>
  <path class="cls-12" d="M44.97,86.6v-5.71h.97v5.71h-.97ZM44.97,79.83v-1.11h.97v1.11h-.97Z"/>
  <path class="cls-12" d="M48.29,83.7c0,.68.09,1.18.28,1.49.31.49.72.74,1.24.74.42,0,.78-.18,1.09-.55.31-.36.46-.91.46-1.64s-.15-1.29-.44-1.64c-.3-.35-.65-.54-1.07-.54s-.79.19-1.1.55c-.31.37-.46.9-.46,1.6ZM48.3,86.6h-.9v-7.88h.97v2.82c.41-.51.92-.77,1.56-.77.35,0,.68.08,1,.21.31.14.57.34.77.59.2.26.36.57.47.93.11.36.18.75.18,1.15,0,.98-.24,1.74-.73,2.27-.48.53-1.07.79-1.74.79s-1.21-.27-1.58-.84v.71Z"/>
  <path class="cls-12" d="M53.52,86.6v-5.71h.87v.87c.22-.4.42-.66.62-.79.19-.13.4-.2.62-.2.33,0,.66.11,1,.31l-.34.9c-.24-.13-.47-.21-.7-.21s-.41.07-.57.19c-.18.13-.3.31-.36.53-.11.35-.15.73-.15,1.13v2.98h-.97Z"/>
  <path class="cls-12" d="M60.83,83.74c-.35.14-.88.26-1.58.36-.4.07-.68.13-.85.2-.17.07-.29.18-.37.31-.09.14-.13.3-.13.46,0,.26.09.47.29.65.2.18.48.25.86.25s.7-.08.99-.24c.29-.17.51-.39.65-.67.1-.22.15-.54.15-.97v-.35ZM60.91,85.89c-.36.31-.7.53-1.03.65-.33.11-.69.18-1.07.18-.63,0-1.11-.14-1.44-.45-.34-.31-.51-.69-.51-1.18,0-.28.06-.53.19-.76.13-.23.3-.42.51-.56.2-.13.43-.24.69-.32.19-.04.47-.09.86-.14.78-.09,1.35-.2,1.73-.33v-.25c0-.4-.09-.67-.26-.84-.25-.22-.63-.33-1.11-.33s-.79.09-1.01.24c-.22.16-.37.45-.47.85l-.95-.13c.09-.4.23-.73.43-.98.2-.24.47-.44.85-.57.37-.13.8-.2,1.3-.2s.88.07,1.19.18c.31.11.53.25.67.43.14.18.24.39.3.65.03.18.06.47.06.9v1.29c0,.9.01,1.46.06,1.7.04.24.12.46.25.68h-1.01c-.11-.2-.18-.43-.2-.7Z"/>
  <path class="cls-12" d="M63.3,86.6v-5.71h.87v.87c.22-.4.42-.66.62-.79.19-.13.4-.2.62-.2.33,0,.66.11,1,.31l-.34.9c-.24-.13-.47-.21-.7-.21s-.41.07-.57.19c-.18.13-.3.31-.36.53-.11.35-.15.73-.15,1.13v2.98h-.97Z"/>
  <path class="cls-12" d="M66.93,88.79l-.11-.91c.21.05.4.09.56.09.21,0,.37-.04.51-.11.13-.08.23-.18.32-.3.07-.1.17-.34.3-.73.02-.05.04-.13.09-.23l-2.17-5.71h1.04l1.19,3.31c.15.42.29.86.41,1.32.11-.44.24-.88.4-1.3l1.22-3.33h.97l-2.17,5.8c-.24.62-.42,1.04-.54,1.29-.18.32-.37.55-.59.7-.22.14-.48.22-.79.22-.2,0-.41-.04-.63-.11Z"/>
  <path class="cls-12" d="M30.55,225.13l.14.86c-.29.04-.53.08-.74.08-.35,0-.63-.06-.81-.15-.2-.11-.33-.25-.41-.44-.09-.18-.12-.56-.12-1.14v-3.28h-.7v-.76h.7v-1.41l.96-.58v1.99h.98v.76h-.98v3.33c0,.29.01.46.05.54.03.08.09.14.17.19s.19.07.33.07c.11,0,.25-.01.43-.04Z"/>
  <path class="cls-12" d="M32.13,223.15c0,.73.15,1.28.47,1.64.31.36.72.54,1.2.54s.88-.18,1.2-.54.48-.92.48-1.67c0-.7-.17-1.23-.48-1.61-.33-.36-.73-.55-1.2-.55s-.89.19-1.2.55c-.32.36-.47.91-.47,1.64ZM31.13,223.15c0-1.06.29-1.84.88-2.35.48-.42,1.09-.63,1.79-.63.78,0,1.42.26,1.93.77.49.52.75,1.22.75,2.12,0,.74-.11,1.32-.33,1.74-.22.42-.55.75-.97.98-.42.22-.88.34-1.38.34-.8,0-1.45-.25-1.94-.76-.5-.51-.74-1.24-.74-2.21Z"/>
  <path class="cls-12" d="M38.25,223.15c0,.73.15,1.28.47,1.64.31.36.72.54,1.2.54s.88-.18,1.2-.54.48-.92.48-1.67c0-.7-.17-1.23-.48-1.61-.33-.36-.73-.55-1.2-.55s-.89.19-1.2.55c-.32.36-.47.91-.47,1.64ZM37.24,223.15c0-1.06.29-1.84.88-2.35.48-.42,1.09-.63,1.79-.63.78,0,1.42.26,1.93.77.49.52.75,1.22.75,2.12,0,.74-.11,1.32-.33,1.74-.22.42-.55.75-.97.98-.42.22-.88.34-1.38.34-.8,0-1.45-.25-1.94-.76-.49-.51-.74-1.24-.74-2.21Z"/>
  <rect class="cls-12" x="43.7" y="218.12" width=".97" height="7.88"/>
  <path class="cls-12" d="M49.88,223.91l.96.12c-.11.66-.37,1.18-.8,1.54-.43.37-.96.55-1.57.55-.79,0-1.42-.25-1.89-.76s-.7-1.23-.7-2.19c0-.62.1-1.15.31-1.62.2-.46.51-.8.92-1.03.42-.23.87-.35,1.36-.35.62,0,1.12.17,1.52.47s.65.76.76,1.33l-.94.14c-.09-.37-.25-.66-.47-.86-.23-.2-.51-.3-.83-.3-.49,0-.89.18-1.2.53-.31.35-.45.9-.45,1.65s.14,1.33.44,1.67c.29.35.67.52,1.15.52.37,0,.69-.11.95-.34.25-.23.42-.59.48-1.08Z"/>
  <path class="cls-12" d="M51.67,226v-7.88h.97v2.83c.44-.52,1.01-.78,1.7-.78.42,0,.79.09,1.1.25s.54.4.67.68c.13.3.2.73.2,1.28v3.62h-.97v-3.62c0-.48-.11-.84-.32-1.06s-.51-.33-.88-.33c-.29,0-.56.08-.81.23-.25.15-.43.35-.54.61s-.15.6-.15,1.04v3.12h-.97Z"/>
  <path class="cls-12" d="M61.42,223.14c-.35.14-.88.26-1.58.36-.4.07-.68.13-.85.2-.17.07-.29.18-.37.31-.09.14-.13.3-.13.46,0,.26.09.47.29.65.2.18.48.25.86.25s.7-.08.99-.24c.29-.16.51-.38.65-.67.1-.22.15-.54.15-.97v-.35ZM61.5,225.29c-.36.31-.7.53-1.03.65-.33.11-.69.18-1.07.18-.63,0-1.11-.14-1.44-.45-.34-.31-.51-.69-.51-1.18,0-.27.06-.53.19-.76.13-.23.3-.42.51-.56.2-.13.43-.24.69-.32.19-.04.47-.09.86-.14.78-.09,1.35-.2,1.73-.33v-.25c0-.4-.09-.67-.26-.84-.25-.22-.63-.33-1.11-.33s-.79.09-1.01.24c-.22.17-.37.45-.47.85l-.95-.13c.09-.4.23-.73.43-.98.2-.24.47-.44.85-.57.37-.13.8-.2,1.3-.2s.88.07,1.19.18c.31.11.53.25.67.43.14.18.24.39.3.65.03.18.06.47.06.9v1.29c0,.9.01,1.46.06,1.71.04.24.12.46.25.68h-1.01c-.11-.2-.18-.43-.2-.7Z"/>
  <path class="cls-12" d="M63.9,226v-5.71h.97v5.71h-.97ZM63.9,219.23v-1.11h.97v1.11h-.97Z"/>
  <path class="cls-12" d="M66.34,226v-5.71h.87v.81c.42-.62,1.02-.93,1.82-.93.34,0,.66.07.95.19.29.12.51.29.65.48.14.2.24.44.3.71.03.18.06.5.06.93v3.51h-.97v-3.47c0-.4-.04-.68-.11-.88-.08-.2-.21-.35-.4-.47-.2-.11-.42-.18-.67-.18-.42,0-.78.13-1.08.4-.3.26-.44.76-.44,1.49v3.11h-.97Z"/>
  <path class="cls-12" d="M20.17,198.55v-1.84c0-.56-.05-1.01-.16-1.33-.11-.31-.26-.58-.46-.77-.26-.26-.62-.48-1.08-.62-.46-.14-1.01-.23-1.66-.23-.9,0-1.6.16-2.08.44-.48.29-.8.65-.97,1.07-.11.31-.17.8-.17,1.48v1.8h6.56ZM21.18,199.69h-8.59v-2.96c0-.66.05-1.16.12-1.52.12-.49.34-.91.62-1.26.38-.46.88-.79,1.46-1.02.6-.22,1.27-.34,2.04-.34.66,0,1.24.08,1.74.23.5.16.92.35,1.25.59.34.24.59.5.78.79.19.29.34.62.43,1.02.1.41.14.86.14,1.38v3.1Z"/>
  <path class="cls-12" d="M17.47,190.36v-3.48c-.53.05-.91.18-1.18.4-.41.34-.61.78-.61,1.31,0,.49.17.9.49,1.22.32.34.76.52,1.3.55ZM19.17,186.89l.13-1.09c.65.18,1.14.5,1.49.96.35.47.52,1.06.52,1.78,0,.91-.28,1.64-.83,2.17-.55.53-1.34.79-2.36.79s-1.86-.26-2.44-.8c-.58-.53-.86-1.24-.86-2.1s.29-1.51.85-2.04c.56-.53,1.36-.79,2.39-.79.07,0,.16.01.28.01v4.64c.7-.04,1.21-.23,1.57-.58.36-.35.54-.78.54-1.31,0-.38-.1-.72-.3-1-.19-.26-.52-.48-.97-.65Z"/>
  <path class="cls-12" d="M18.1,183.52c.8,0,1.39-.16,1.78-.48.38-.32.56-.72.56-1.18s-.19-.86-.59-1.2-1.01-.5-1.85-.5c-.79,0-1.38.17-1.78.49-.38.32-.59.71-.59,1.16s.22.85.64,1.19c.42.35,1.03.52,1.82.52ZM23.55,184.48h-8.6v-.96h.82c-.31-.22-.55-.48-.71-.77-.16-.29-.24-.62-.24-1.03,0-.53.14-1,.41-1.4.28-.41.66-.71,1.16-.92.5-.2,1.04-.31,1.63-.31.64,0,1.21.12,1.72.35.52.23.91.56,1.18,1,.26.43.4.89.4,1.37,0,.36-.07.67-.22.95-.14.29-.32.52-.56.68h3.02v1.06Z"/>
  <path class="cls-12" d="M17.47,177.02v-3.48c-.53.05-.91.18-1.18.4-.41.34-.61.78-.61,1.31,0,.49.17.9.49,1.22.32.34.76.52,1.3.55ZM19.17,173.55l.13-1.09c.65.18,1.14.5,1.49.96.35.47.52,1.06.52,1.78,0,.91-.28,1.64-.83,2.17-.55.53-1.34.79-2.36.79s-1.86-.26-2.44-.8c-.58-.53-.86-1.24-.86-2.1s.29-1.51.85-2.04c.56-.53,1.36-.79,2.39-.79.07,0,.16.01.28.01v4.64c.7-.04,1.21-.23,1.57-.58.36-.35.54-.78.54-1.31,0-.38-.1-.72-.3-1-.19-.26-.52-.48-.97-.65Z"/>
  <path class="cls-12" d="M21.18,171.14h-6.23v-.95h.89c-.67-.46-1.02-1.12-1.02-1.98,0-.37.07-.72.2-1.03s.31-.55.53-.71c.22-.16.48-.26.78-.32.19-.04.54-.06,1.02-.06h3.83v1.06h-3.78c-.43,0-.74.05-.96.12-.22.08-.38.23-.52.43-.12.22-.19.46-.19.73,0,.46.14.85.43,1.18.29.32.83.48,1.62.48h3.4v1.06Z"/>
  <path class="cls-12" d="M18.07,163.76c.8,0,1.4-.16,1.79-.49.4-.34.59-.73.59-1.19s-.18-.85-.56-1.18c-.37-.32-.95-.49-1.72-.49-.85,0-1.48.17-1.88.49-.4.34-.6.73-.6,1.21s.19.86.58,1.18c.38.31,1,.47,1.81.47ZM21.18,160.43h-.78c.61.4.91.97.91,1.74,0,.5-.13.96-.41,1.37-.26.42-.65.74-1.14.97-.48.23-1.04.34-1.69.34-.61,0-1.18-.1-1.68-.31-.5-.2-.9-.52-1.16-.92s-.41-.88-.41-1.39c0-.37.08-.71.24-1.01.16-.29.36-.53.61-.71h-3.08v-1.06h8.59v.98Z"/>
  <path class="cls-12" d="M17.47,157v-3.48c-.53.05-.91.18-1.18.4-.41.34-.61.78-.61,1.31,0,.49.17.9.49,1.22.32.34.76.52,1.3.55ZM19.17,153.53l.13-1.09c.65.18,1.14.5,1.49.96.35.47.52,1.06.52,1.78,0,.91-.28,1.64-.83,2.17-.55.53-1.34.79-2.36.79s-1.86-.26-2.44-.8c-.58-.53-.86-1.24-.86-2.1s.29-1.51.85-2.04c.56-.53,1.36-.79,2.39-.79.07,0,.16.01.28.01v4.64c.7-.04,1.21-.23,1.57-.58.36-.35.54-.78.54-1.31,0-.38-.1-.72-.3-1-.19-.26-.52-.48-.97-.65Z"/>
  <path class="cls-12" d="M21.18,151.12h-6.23v-.95h.89c-.67-.46-1.02-1.12-1.02-1.98,0-.37.07-.72.2-1.03s.31-.55.53-.71c.22-.16.48-.26.78-.32.19-.04.54-.06,1.02-.06h3.83v1.06h-3.78c-.43,0-.74.05-.96.12-.22.08-.38.23-.52.43-.12.22-.19.46-.19.73,0,.46.14.85.43,1.18.29.32.83.48,1.62.48h3.4v1.06Z"/>
  <path class="cls-12" d="M18.9,140.39l.13-1.04c.72.12,1.28.41,1.68.88.41.47.6,1.04.6,1.72,0,.86-.28,1.55-.83,2.06-.55.52-1.34.77-2.39.77-.67,0-1.26-.11-1.76-.34-.5-.22-.88-.55-1.13-1.01-.25-.46-.38-.95-.38-1.49,0-.67.18-1.22.52-1.66.34-.43.83-.71,1.45-.83l.16,1.02c-.41.1-.72.28-.94.52-.22.25-.32.55-.32.9,0,.54.19.97.58,1.31.38.34.98.49,1.8.49s1.45-.16,1.82-.48c.38-.31.56-.73.56-1.26,0-.41-.12-.76-.37-1.03-.25-.28-.65-.46-1.18-.53Z"/>
  <path class="cls-12" d="M23.56,138.5l-1,.12c.06-.23.1-.43.1-.61,0-.23-.05-.41-.12-.55-.08-.14-.19-.25-.32-.35-.11-.07-.37-.18-.79-.32-.06-.02-.14-.05-.25-.1l-6.23,2.36v-1.14l3.61-1.3c.46-.17.94-.31,1.44-.44-.48-.12-.96-.26-1.42-.43l-3.64-1.33v-1.06l6.32,2.36c.67.26,1.14.46,1.4.59.35.19.6.41.77.65.16.24.24.53.24.86,0,.22-.05.44-.12.68Z"/>
  <polygon class="cls-12" points="21.18 127 13.6 127 13.6 129.83 12.58 129.83 12.58 123.02 13.6 123.02 13.6 125.86 21.18 125.86 21.18 127"/>
  <path class="cls-12" d="M23.56,122.69l-1,.12c.06-.23.1-.43.1-.61,0-.23-.05-.41-.12-.55-.08-.14-.19-.25-.32-.35-.11-.07-.37-.18-.79-.32-.06-.02-.14-.05-.25-.1l-6.23,2.36v-1.14l3.61-1.3c.46-.17.94-.31,1.44-.44-.48-.12-.96-.26-1.42-.43l-3.64-1.33v-1.06l6.32,2.36c.67.26,1.14.46,1.4.59.35.19.6.41.77.65.16.24.24.53.24.86,0,.22-.05.44-.12.68Z"/>
  <path class="cls-12" d="M18.1,115.68c.8,0,1.39-.16,1.78-.48.38-.32.56-.72.56-1.18s-.19-.86-.59-1.2-1.01-.5-1.85-.5c-.79,0-1.38.17-1.78.49-.38.32-.59.71-.59,1.16s.22.85.64,1.19c.42.35,1.03.52,1.82.52ZM23.55,116.64h-8.6v-.96h.82c-.31-.22-.55-.48-.71-.77-.16-.29-.24-.62-.24-1.03,0-.53.14-1,.41-1.4.28-.41.66-.71,1.16-.92.5-.2,1.04-.31,1.63-.31.64,0,1.21.12,1.72.35.52.23.91.56,1.18,1,.26.43.4.89.4,1.37,0,.36-.07.67-.22.95-.14.29-.32.52-.56.68h3.02v1.06Z"/>
  <path class="cls-12" d="M17.47,109.18v-3.48c-.53.05-.91.18-1.18.4-.41.34-.61.78-.61,1.31,0,.49.17.9.49,1.22.32.34.76.52,1.3.55ZM19.17,105.71l.13-1.09c.65.18,1.14.5,1.49.96.35.47.52,1.06.52,1.78,0,.91-.28,1.64-.83,2.17-.55.53-1.34.79-2.36.79s-1.86-.26-2.44-.8c-.58-.53-.86-1.24-.86-2.1s.29-1.51.85-2.04c.56-.53,1.36-.79,2.39-.79.07,0,.16.01.28.01v4.64c.7-.04,1.21-.23,1.57-.58.36-.35.54-.78.54-1.31,0-.38-.1-.72-.3-1-.19-.26-.52-.48-.97-.65Z"/>
  <g class="cls-19">
    <rect class="cls-10" x="-102356.84" y="26.9" width="102454.78" height="27.88"/>
    <rect class="cls-7" x="-102356.84" y="26.9" width="102454.78" height="27.88"/>
  </g>
  <g class="cls-100">
    <line class="cls-1" x1="97.93" y1="40.84" x2="128.77" y2="40.84"/>
  </g>
  <g class="cls-99">
    <line class="cls-3" x1="128.77" y1="33.87" x2="128.77" y2="47.81"/>
  </g>
  <g class="cls-98">
    <g class="cls-97">
      <path class="cls-1" d="M146.82,43.84c.8,0,1.56-.32,2.12-.88.56-.56.88-1.33.88-2.12s-.32-1.56-.88-2.12c-.56-.56-1.33-.88-2.12-.88s-1.56.32-2.12.88c-.56.56-.88,1.33-.88,2.12s.32,1.56.88,2.12c.56.56,1.33.88,2.12.88Z"/>
    </g>
    <g class="cls-101">
      <path class="cls-1" d="M146.82,43.84c.8,0,1.56-.32,2.12-.88.56-.56.88-1.33.88-2.12s-.32-1.56-.88-2.12c-.56-.56-1.33-.88-2.12-.88s-1.56.32-2.12.88c-.56.56-.88,1.33-.88,2.12s.32,1.56.88,2.12c.56.56,1.33.88,2.12.88Z"/>
    </g>
    <g class="cls-103">
      <path class="cls-1" d="M146.82,43.84c.8,0,1.56-.32,2.12-.88.56-.56.88-1.33.88-2.12s-.32-1.56-.88-2.12c-.56-.56-1.33-.88-2.12-.88s-1.56.32-2.12.88c-.56.56-.88,1.33-.88,2.12s.32,1.56.88,2.12c.56.56,1.33.88,2.12.88Z"/>
    </g>
  </g>
  <g class="cls-102">
    <rect class="cls-10" x="150.38" y="166.3" width="34.14" height="27.88"/>
    <rect class="cls-7" x="150.38" y="166.3" width="34.14" height="27.88"/>
  </g>
  <g class="cls-105">
    <line class="cls-1" x1="150.38" y1="180.24" x2="-1" y2="180.24"/>
  </g>
  <g class="cls-104">
    <line class="cls-1" x1="184.52" y1="180.24" x2="208.5" y2="180.24"/>
  </g>
  <g class="cls-22">
    <line class="cls-3" x1="208.5" y1="173.27" x2="208.5" y2="187.21"/>
  </g>
  <g class="cls-25">
    <path class="cls-1" d="M221.3,183.24c.8,0,1.56-.32,2.12-.88.56-.56.88-1.33.88-2.12s-.32-1.56-.88-2.12c-.56-.56-1.33-.88-2.12-.88s-1.56.32-2.12.88-.88,1.33-.88,2.12.32,1.56.88,2.12,1.33.88,2.12.88Z"/>
  </g>
  <g class="cls-24">
    <rect class="cls-13" x="216.15" y="54.78" width="31.23" height="27.88"/>
    <rect class="cls-7" x="216.15" y="54.78" width="31.23" height="27.88"/>
  </g>
  <g class="cls-23">
    <line class="cls-1" x1="216.15" y1="68.72" x2="159.62" y2="68.72"/>
  </g>
  <g class="cls-26">
    <line class="cls-1" x1="247.38" y1="68.72" x2="272" y2="68.72"/>
  </g>
  <g class="cls-50">
    <line class="cls-3" x1="159.62" y1="61.75" x2="159.62" y2="75.69"/>
  </g>
  <g class="cls-48">
    <line class="cls-3" x1="272" y1="61.75" x2="272" y2="75.69"/>
  </g>
  <g class="cls-49">
    <g class="cls-51">
      <path class="cls-1" d="M275.42,71.72c.8,0,1.56-.32,2.12-.88.56-.56.88-1.33.88-2.12s-.32-1.56-.88-2.12c-.56-.56-1.33-.88-2.12-.88s-1.56.32-2.12.88c-.56.56-.88,1.33-.88,2.12s.32,1.56.88,2.12c.56.56,1.33.88,2.12.88Z"/>
    </g>
    <g class="cls-57">
      <path class="cls-1" d="M273.74,71.72c.8,0,1.56-.32,2.12-.88.56-.56.88-1.33.88-2.12s-.32-1.56-.88-2.12c-.56-.56-1.33-.88-2.12-.88s-1.56.32-2.12.88c-.56.56-.88,1.33-.88,2.12s.32,1.56.88,2.12c.56.56,1.33.88,2.12.88Z"/>
    </g>
    <g class="cls-59">
      <path class="cls-1" d="M272.88,71.72c.8,0,1.56-.32,2.12-.88.56-.56.88-1.33.88-2.12s-.32-1.56-.88-2.12c-.56-.56-1.33-.88-2.12-.88s-1.56.32-2.12.88c-.56.56-.88,1.33-.88,2.12s.32,1.56.88,2.12c.56.56,1.33.88,2.12.88Z"/>
    </g>
    <g class="cls-56">
      <path class="cls-1" d="M274.59,71.72c.8,0,1.56-.32,2.12-.88.56-.56.88-1.33.88-2.12s-.32-1.56-.88-2.12c-.56-.56-1.33-.88-2.12-.88s-1.56.32-2.12.88c-.56.56-.88,1.33-.88,2.12s.32,1.56.88,2.12c.56.56,1.33.88,2.12.88Z"/>
    </g>
    <g class="cls-55">
      <path class="cls-1" d="M277.83,71.72c.8,0,1.56-.32,2.12-.88.56-.56.88-1.33.88-2.12s-.32-1.56-.88-2.12c-.56-.56-1.33-.88-2.12-.88s-1.56.32-2.12.88c-.56.56-.88,1.33-.88,2.12s.32,1.56.88,2.12c.56.56,1.33.88,2.12.88Z"/>
    </g>
  </g>
  <g class="cls-52">
    <path class="cls-7" d="M159.62,194.18v27.88-27.88Z"/>
  </g>
  <g class="cls-53">
    <line class="cls-3" x1="159.62" y1="201.15" x2="159.62" y2="215.09"/>
  </g>
  <g class="cls-58">
    <line class="cls-3" x1="159.62" y1="201.15" x2="159.62" y2="215.09"/>
  </g>
  <g class="cls-54">
    <g class="cls-29">
      <path class="cls-1" d="M146.82,211.12c.8,0,1.56-.32,2.12-.88s.88-1.33.88-2.12-.32-1.56-.88-2.12-1.33-.88-2.12-.88-1.56.32-2.12.88-.88,1.33-.88,2.12.32,1.56.88,2.12,1.33.88,2.12.88Z"/>
    </g>
    <g class="cls-31">
      <path class="cls-1" d="M97.93,211.12c.8,0,1.56-.32,2.12-.88.56-.56.88-1.33.88-2.12s-.32-1.56-.88-2.12c-.56-.56-1.33-.88-2.12-.88s-1.56.32-2.12.88c-.56.56-.88,1.33-.88,2.12s.32,1.56.88,2.12c.56.56,1.33.88,2.12.88Z"/>
    </g>
    <g class="cls-30">
      <path class="cls-1" d="M146.82,211.12c.8,0,1.56-.32,2.12-.88s.88-1.33.88-2.12-.32-1.56-.88-2.12-1.33-.88-2.12-.88-1.56.32-2.12.88-.88,1.33-.88,2.12.32,1.56.88,2.12,1.33.88,2.12.88Z"/>
    </g>
    <g class="cls-33">
      <path class="cls-1" d="M146.82,211.12c.8,0,1.56-.32,2.12-.88s.88-1.33.88-2.12-.32-1.56-.88-2.12-1.33-.88-2.12-.88-1.56.32-2.12.88-.88,1.33-.88,2.12.32,1.56.88,2.12,1.33.88,2.12.88Z"/>
    </g>
    <g class="cls-27">
      <path class="cls-1" d="M146.82,211.12c.8,0,1.56-.32,2.12-.88s.88-1.33.88-2.12-.32-1.56-.88-2.12-1.33-.88-2.12-.88-1.56.32-2.12.88-.88,1.33-.88,2.12.32,1.56.88,2.12,1.33.88,2.12.88Z"/>
    </g>
    <g class="cls-28">
      <path class="cls-1" d="M146.82,211.12c.8,0,1.56-.32,2.12-.88s.88-1.33.88-2.12-.32-1.56-.88-2.12-1.33-.88-2.12-.88-1.56.32-2.12.88-.88,1.33-.88,2.12.32,1.56.88,2.12,1.33.88,2.12.88Z"/>
    </g>
    <g class="cls-34">
      <path class="cls-1" d="M146.82,211.12c.8,0,1.56-.32,2.12-.88s.88-1.33.88-2.12-.32-1.56-.88-2.12-1.33-.88-2.12-.88-1.56.32-2.12.88-.88,1.33-.88,2.12.32,1.56.88,2.12,1.33.88,2.12.88Z"/>
    </g>
    <g class="cls-32">
      <path class="cls-1" d="M97.93,211.12c.8,0,1.56-.32,2.12-.88.56-.56.88-1.33.88-2.12s-.32-1.56-.88-2.12c-.56-.56-1.33-.88-2.12-.88s-1.56.32-2.12.88c-.56.56-.88,1.33-.88,2.12s.32,1.56.88,2.12c.56.56,1.33.88,2.12.88Z"/>
    </g>
    <g class="cls-35">
      <path class="cls-1" d="M146.82,211.12c.8,0,1.56-.32,2.12-.88s.88-1.33.88-2.12-.32-1.56-.88-2.12-1.33-.88-2.12-.88-1.56.32-2.12.88-.88,1.33-.88,2.12.32,1.56.88,2.12,1.33.88,2.12.88Z"/>
    </g>
    <g class="cls-36">
      <path class="cls-1" d="M169.55,211.12c.8,0,1.56-.32,2.12-.88s.88-1.33.88-2.12-.32-1.56-.88-2.12-1.33-.88-2.12-.88-1.56.32-2.12.88-.88,1.33-.88,2.12.32,1.56.88,2.12,1.33.88,2.12.88Z"/>
    </g>
    <g class="cls-71">
      <path class="cls-1" d="M169.55,211.12c.8,0,1.56-.32,2.12-.88s.88-1.33.88-2.12-.32-1.56-.88-2.12-1.33-.88-2.12-.88-1.56.32-2.12.88-.88,1.33-.88,2.12.32,1.56.88,2.12,1.33.88,2.12.88Z"/>
    </g>
    <g class="cls-72">
      <path class="cls-1" d="M169.55,211.12c.8,0,1.56-.32,2.12-.88s.88-1.33.88-2.12-.32-1.56-.88-2.12-1.33-.88-2.12-.88-1.56.32-2.12.88-.88,1.33-.88,2.12.32,1.56.88,2.12,1.33.88,2.12.88Z"/>
    </g>
    <g class="cls-73">
      <path class="cls-1" d="M169.55,211.12c.8,0,1.56-.32,2.12-.88s.88-1.33.88-2.12-.32-1.56-.88-2.12-1.33-.88-2.12-.88-1.56.32-2.12.88-.88,1.33-.88,2.12.32,1.56.88,2.12,1.33.88,2.12.88Z"/>
    </g>
    <g class="cls-69">
      <path class="cls-1" d="M169.55,211.12c.8,0,1.56-.32,2.12-.88s.88-1.33.88-2.12-.32-1.56-.88-2.12-1.33-.88-2.12-.88-1.56.32-2.12.88-.88,1.33-.88,2.12.32,1.56.88,2.12,1.33.88,2.12.88Z"/>
    </g>
    <g class="cls-70">
      <path class="cls-1" d="M169.55,211.12c.8,0,1.56-.32,2.12-.88s.88-1.33.88-2.12-.32-1.56-.88-2.12-1.33-.88-2.12-.88-1.56.32-2.12.88-.88,1.33-.88,2.12.32,1.56.88,2.12,1.33.88,2.12.88Z"/>
    </g>
    <g class="cls-74">
      <path class="cls-1" d="M184.52,211.12c.8,0,1.56-.32,2.12-.88s.88-1.33.88-2.12-.32-1.56-.88-2.12-1.33-.88-2.12-.88-1.56.32-2.12.88-.88,1.33-.88,2.12.32,1.56.88,2.12,1.33.88,2.12.88Z"/>
    </g>
    <g class="cls-75">
      <path class="cls-1" d="M169.55,211.12c.8,0,1.56-.32,2.12-.88s.88-1.33.88-2.12-.32-1.56-.88-2.12-1.33-.88-2.12-.88-1.56.32-2.12.88-.88,1.33-.88,2.12.32,1.56.88,2.12,1.33.88,2.12.88Z"/>
    </g>
    <g class="cls-76">
      <path class="cls-1" d="M169.55,211.12c.8,0,1.56-.32,2.12-.88s.88-1.33.88-2.12-.32-1.56-.88-2.12-1.33-.88-2.12-.88-1.56.32-2.12.88-.88,1.33-.88,2.12.32,1.56.88,2.12,1.33.88,2.12.88Z"/>
    </g>
    <g class="cls-77">
      <path class="cls-1" d="M169.55,211.12c.8,0,1.56-.32,2.12-.88s.88-1.33.88-2.12-.32-1.56-.88-2.12-1.33-.88-2.12-.88-1.56.32-2.12.88-.88,1.33-.88,2.12.32,1.56.88,2.12,1.33.88,2.12.88Z"/>
    </g>
    <g class="cls-85">
      <path class="cls-1" d="M169.55,211.12c.8,0,1.56-.32,2.12-.88s.88-1.33.88-2.12-.32-1.56-.88-2.12-1.33-.88-2.12-.88-1.56.32-2.12.88-.88,1.33-.88,2.12.32,1.56.88,2.12,1.33.88,2.12.88Z"/>
    </g>
    <g class="cls-20">
      <path class="cls-1" d="M177.66,211.12c.8,0,1.56-.32,2.12-.88s.88-1.33.88-2.12-.32-1.56-.88-2.12-1.33-.88-2.12-.88-1.56.32-2.12.88-.88,1.33-.88,2.12.32,1.56.88,2.12,1.33.88,2.12.88Z"/>
    </g>
    <g class="cls-79">
      <path class="cls-1" d="M169.55,211.12c.8,0,1.56-.32,2.12-.88s.88-1.33.88-2.12-.32-1.56-.88-2.12-1.33-.88-2.12-.88-1.56.32-2.12.88-.88,1.33-.88,2.12.32,1.56.88,2.12,1.33.88,2.12.88Z"/>
    </g>
    <g class="cls-81">
      <path class="cls-1" d="M169.55,211.12c.8,0,1.56-.32,2.12-.88s.88-1.33.88-2.12-.32-1.56-.88-2.12-1.33-.88-2.12-.88-1.56.32-2.12.88-.88,1.33-.88,2.12.32,1.56.88,2.12,1.33.88,2.12.88Z"/>
    </g>
    <g class="cls-87">
      <path class="cls-1" d="M169.55,211.12c.8,0,1.56-.32,2.12-.88s.88-1.33.88-2.12-.32-1.56-.88-2.12-1.33-.88-2.12-.88-1.56.32-2.12.88-.88,1.33-.88,2.12.32,1.56.88,2.12,1.33.88,2.12.88Z"/>
    </g>
    <g class="cls-80">
      <path class="cls-1" d="M184.52,211.12c.8,0,1.56-.32,2.12-.88s.88-1.33.88-2.12-.32-1.56-.88-2.12-1.33-.88-2.12-.88-1.56.32-2.12.88-.88,1.33-.88,2.12.32,1.56.88,2.12,1.33.88,2.12.88Z"/>
    </g>
    <g class="cls-86">
      <path class="cls-1" d="M169.55,211.12c.8,0,1.56-.32,2.12-.88s.88-1.33.88-2.12-.32-1.56-.88-2.12-1.33-.88-2.12-.88-1.56.32-2.12.88-.88,1.33-.88,2.12.32,1.56.88,2.12,1.33.88,2.12.88Z"/>
    </g>
  </g>
  <g class="cls-88">
    <rect class="cls-11" x="218.43" y="82.66" width="28.95" height="27.88"/>
    <rect class="cls-7" x="218.43" y="82.66" width="28.95" height="27.88"/>
  </g>
  <g class="cls-83">
    <line class="cls-1" x1="218.43" y1="96.6" x2="184.52" y2="96.6"/>
  </g>
  <g class="cls-82">
    <line class="cls-1" x1="247.38" y1="96.6" x2="269.25" y2="96.6"/>
  </g>
  <g class="cls-21">
    <line class="cls-3" x1="184.52" y1="89.63" x2="184.52" y2="103.57"/>
  </g>
  <g class="cls-89">
    <line class="cls-3" x1="269.25" y1="89.63" x2="269.25" y2="103.57"/>
  </g>
  <g class="cls-93">
    <g class="cls-91">
      <path class="cls-1" d="M276.24,99.6c.8,0,1.56-.32,2.12-.88.56-.56.88-1.33.88-2.12s-.32-1.56-.88-2.12c-.56-.56-1.33-.88-2.12-.88s-1.56.32-2.12.88c-.56.56-.88,1.33-.88,2.12s.32,1.56.88,2.12c.56.56,1.33.88,2.12.88Z"/>
    </g>
    <g class="cls-84">
      <path class="cls-1" d="M274.59,99.6c.8,0,1.56-.32,2.12-.88.56-.56.88-1.33.88-2.12s-.32-1.56-.88-2.12c-.56-.56-1.33-.88-2.12-.88s-1.56.32-2.12.88c-.56.56-.88,1.33-.88,2.12s.32,1.56.88,2.12c.56.56,1.33.88,2.12.88Z"/>
    </g>
    <g class="cls-95">
      <path class="cls-1" d="M272.88,99.6c.8,0,1.56-.32,2.12-.88.56-.56.88-1.33.88-2.12s-.32-1.56-.88-2.12c-.56-.56-1.33-.88-2.12-.88s-1.56.32-2.12.88c-.56.56-.88,1.33-.88,2.12s.32,1.56.88,2.12c.56.56,1.33.88,2.12.88Z"/>
    </g>
    <g class="cls-90">
      <path class="cls-1" d="M274.59,99.6c.8,0,1.56-.32,2.12-.88.56-.56.88-1.33.88-2.12s-.32-1.56-.88-2.12c-.56-.56-1.33-.88-2.12-.88s-1.56.32-2.12.88c-.56.56-.88,1.33-.88,2.12s.32,1.56.88,2.12c.56.56,1.33.88,2.12.88Z"/>
    </g>
    <g class="cls-96">
      <path class="cls-1" d="M276.24,99.6c.8,0,1.56-.32,2.12-.88.56-.56.88-1.33.88-2.12s-.32-1.56-.88-2.12c-.56-.56-1.33-.88-2.12-.88s-1.56.32-2.12.88c-.56.56-.88,1.33-.88,2.12s.32,1.56.88,2.12c.56.56,1.33.88,2.12.88Z"/>
    </g>
    <g class="cls-94">
      <path class="cls-1" d="M279.36,99.6c.8,0,1.56-.32,2.12-.88.56-.56.88-1.33.88-2.12s-.32-1.56-.88-2.12c-.56-.56-1.33-.88-2.12-.88s-1.56.32-2.12.88c-.56.56-.88,1.33-.88,2.12s.32,1.56.88,2.12c.56.56,1.33.88,2.12.88Z"/>
    </g>
    <g class="cls-92">
      <path class="cls-1" d="M272.88,99.6c.8,0,1.56-.32,2.12-.88.56-.56.88-1.33.88-2.12s-.32-1.56-.88-2.12c-.56-.56-1.33-.88-2.12-.88s-1.56.32-2.12.88c-.56.56-.88,1.33-.88,2.12s.32,1.56.88,2.12c.56.56,1.33.88,2.12.88Z"/>
    </g>
  </g>
  <g class="cls-78">
    <rect class="cls-11" x="184.52" y="222.06" width="20.11" height="27.88"/>
    <rect class="cls-7" x="184.52" y="222.06" width="20.11" height="27.88"/>
  </g>
  <g class="cls-43">
    <line class="cls-1" x1="184.52" y1="236" x2="97.93" y2="236"/>
  </g>
  <g class="cls-40">
    <line class="cls-1" x1="204.63" y1="236" x2="224" y2="236"/>
  </g>
  <g class="cls-45">
    <line class="cls-3" x1="97.93" y1="229.03" x2="97.93" y2="242.97"/>
  </g>
  <g class="cls-41">
    <line class="cls-3" x1="224" y1="229.03" x2="224" y2="242.97"/>
  </g>
  <g class="cls-37">
    <path class="cls-1" d="M237.45,239c.8,0,1.56-.32,2.12-.88.56-.56.88-1.33.88-2.12s-.32-1.56-.88-2.12c-.56-.56-1.33-.88-2.12-.88s-1.56.32-2.12.88c-.56.56-.88,1.33-.88,2.12s.32,1.56.88,2.12c.56.56,1.33.88,2.12.88Z"/>
  </g>
  <g class="cls-42">
    <rect class="cls-14" x="250.73" y="110.54" width="40.77" height="27.88"/>
    <rect class="cls-7" x="250.73" y="110.54" width="40.77" height="27.88"/>
  </g>
  <g class="cls-39">
    <line class="cls-1" x1="250.73" y1="124.48" x2="224" y2="124.48"/>
  </g>
  <g class="cls-44">
    <line class="cls-1" x1="291.5" y1="124.48" x2="317.49" y2="124.48"/>
  </g>
  <g class="cls-38">
    <line class="cls-3" x1="224" y1="117.51" x2="224" y2="131.45"/>
  </g>
  <g class="cls-47">
    <line class="cls-3" x1="317.49" y1="117.51" x2="317.49" y2="131.45"/>
  </g>
  <g class="cls-66">
    <g class="cls-64">
      <path class="cls-1" d="M335.64,127.48c.8,0,1.56-.32,2.12-.88.56-.56.88-1.33.88-2.12s-.32-1.56-.88-2.12c-.56-.56-1.33-.88-2.12-.88s-1.56.32-2.12.88c-.56.56-.88,1.33-.88,2.12s.32,1.56.88,2.12c.56.56,1.33.88,2.12.88Z"/>
    </g>
    <g class="cls-67">
      <path class="cls-1" d="M355.7,127.48c.8,0,1.56-.32,2.12-.88.56-.56.88-1.33.88-2.12s-.32-1.56-.88-2.12c-.56-.56-1.33-.88-2.12-.88s-1.56.32-2.12.88c-.56.56-.88,1.33-.88,2.12s.32,1.56.88,2.12c.56.56,1.33.88,2.12.88Z"/>
    </g>
    <g class="cls-62">
      <path class="cls-1" d="M376.88,127.48c.8,0,1.56-.32,2.12-.88.56-.56.88-1.33.88-2.12s-.32-1.56-.88-2.12c-.56-.56-1.33-.88-2.12-.88s-1.56.32-2.12.88c-.56.56-.88,1.33-.88,2.12s.32,1.56.88,2.12c.56.56,1.33.88,2.12.88Z"/>
    </g>
    <g class="cls-63">
      <path class="cls-1" d="M431.18,127.48c.8,0,1.56-.32,2.12-.88.56-.56.88-1.33.88-2.12s-.32-1.56-.88-2.12c-.56-.56-1.33-.88-2.12-.88s-1.56.32-2.12.88c-.56.56-.88,1.33-.88,2.12s.32,1.56.88,2.12c.56.56,1.33.88,2.12.88Z"/>
    </g>
    <g class="cls-60">
      <path class="cls-1" d="M359.84,127.48c.8,0,1.56-.32,2.12-.88.56-.56.88-1.33.88-2.12s-.32-1.56-.88-2.12c-.56-.56-1.33-.88-2.12-.88s-1.56.32-2.12.88c-.56.56-.88,1.33-.88,2.12s.32,1.56.88,2.12c.56.56,1.33.88,2.12.88Z"/>
    </g>
    <g class="cls-65">
      <path class="cls-1" d="M408.6,127.48c.8,0,1.56-.32,2.12-.88.56-.56.88-1.33.88-2.12s-.32-1.56-.88-2.12c-.56-.56-1.33-.88-2.12-.88s-1.56.32-2.12.88c-.56.56-.88,1.33-.88,2.12s.32,1.56.88,2.12c.56.56,1.33.88,2.12.88Z"/>
    </g>
    <g class="cls-68">
      <path class="cls-1" d="M322.63,127.48c.8,0,1.56-.32,2.12-.88.56-.56.88-1.33.88-2.12s-.32-1.56-.88-2.12c-.56-.56-1.33-.88-2.12-.88s-1.56.32-2.12.88c-.56.56-.88,1.33-.88,2.12s.32,1.56.88,2.12c.56.56,1.33.88,2.12.88Z"/>
    </g>
    <g class="cls-46">
      <path class="cls-1" d="M409.09,127.48c.8,0,1.56-.32,2.12-.88.56-.56.88-1.33.88-2.12s-.32-1.56-.88-2.12c-.56-.56-1.33-.88-2.12-.88s-1.56.32-2.12.88c-.56.56-.88,1.33-.88,2.12s.32,1.56.88,2.12c.56.56,1.33.88,2.12.88Z"/>
    </g>
  </g>
  <g class="cls-61">
    <rect class="cls-14" x="-102356.84" y="249.94" width="102485.62" height="27.88"/>
    <rect class="cls-7" x="-102356.84" y="249.94" width="102485.62" height="27.88"/>
  </g>
  <g class="cls-112">
    <line class="cls-1" x1="128.77" y1="263.88" x2="146.82" y2="263.88"/>
  </g>
  <g class="cls-108">
    <line class="cls-3" x1="146.82" y1="256.91" x2="146.82" y2="270.85"/>
  </g>
  <g class="cls-111">
    <line class="cls-1" x1="97.93" y1="26.9" x2="97.93" y2="54.78"/>
  </g>
  <g class="cls-107">
    <line class="cls-1" x1="169.55" y1="166.3" x2="169.55" y2="194.18"/>
  </g>
  <g class="cls-114">
    <line class="cls-1" x1="232.33" y1="54.78" x2="232.33" y2="82.66"/>
  </g>
  <g class="cls-109">
    <line class="cls-1" x1="159.62" y1="194.18" x2="159.62" y2="222.06"/>
  </g>
  <g class="cls-113">
    <line class="cls-1" x1="233.4" y1="82.66" x2="233.4" y2="110.54"/>
  </g>
  <g class="cls-110">
    <line class="cls-1" x1="195.7" y1="222.06" x2="195.7" y2="249.94"/>
  </g>
  <g class="cls-106">
    <line class="cls-1" x1="272.88" y1="110.54" x2="272.88" y2="138.42"/>
  </g>
  <line class="cls-6" x1="81.27" y1="291.76" x2="81.27" y2="12.96"/>
  <line class="cls-6" x1="447.84" y1="291.76" x2="447.84" y2="12.96"/>
  <line class="cls-6" x1="81.27" y1="291.76" x2="447.84" y2="291.76"/>
  <line class="cls-6" x1="81.27" y1="12.96" x2="447.84" y2="12.96"/>
  <g>
    <rect class="cls-9" x="285.02" y="18.46" width="157.32" height="83.24" rx="2.2" ry="2.2"/>
    <rect class="cls-4" x="285.02" y="18.46" width="157.32" height="83.24" rx="2.2" ry="2.2"/>
  </g>
  <path class="cls-12" d="M306.05,30.59h1.84c.56,0,1.01-.05,1.33-.16.31-.11.58-.26.77-.46.26-.26.48-.62.62-1.08.14-.46.23-1.01.23-1.66,0-.9-.16-1.6-.44-2.08-.29-.48-.65-.8-1.07-.97-.31-.11-.8-.17-1.48-.17h-1.8v6.56ZM304.91,31.59v-8.59h2.96c.66,0,1.16.05,1.52.12.49.12.91.34,1.26.62.46.38.79.88,1.02,1.46.22.6.34,1.27.34,2.04,0,.66-.08,1.24-.23,1.74-.16.5-.35.92-.59,1.25-.24.34-.5.59-.79.78-.29.19-.62.34-1.02.43-.41.1-.86.14-1.38.14h-3.1Z"/>
  <path class="cls-12" d="M314.23,27.89h3.48c-.05-.53-.18-.91-.4-1.18-.34-.41-.78-.61-1.31-.61-.49,0-.9.17-1.22.49-.34.32-.52.76-.55,1.3ZM317.7,29.59l1.09.13c-.18.65-.5,1.14-.96,1.49-.47.35-1.06.52-1.78.52-.91,0-1.64-.28-2.17-.83-.53-.55-.79-1.34-.79-2.36s.26-1.86.8-2.44c.53-.58,1.24-.86,2.1-.86s1.51.29,2.04.85c.53.56.79,1.36.79,2.39,0,.07-.01.16-.01.28h-4.64c.04.7.23,1.21.58,1.57.35.36.78.54,1.31.54.38,0,.72-.1,1-.3.26-.19.48-.52.65-.97Z"/>
  <path class="cls-12" d="M321.07,28.52c0,.8.16,1.39.48,1.78s.72.56,1.18.56.86-.19,1.2-.59.5-1.01.5-1.85c0-.79-.17-1.38-.49-1.78-.32-.38-.71-.59-1.16-.59s-.85.22-1.19.64c-.35.42-.52,1.03-.52,1.82ZM320.11,33.97v-8.6h.96v.82c.22-.31.48-.55.77-.71.29-.16.62-.24,1.03-.24.53,0,1,.14,1.4.41.41.28.71.66.92,1.16.2.5.31,1.04.31,1.63,0,.64-.12,1.21-.35,1.72-.23.52-.56.91-1,1.18s-.89.4-1.37.4c-.36,0-.67-.07-.95-.22-.29-.14-.52-.32-.68-.56v3.02h-1.06Z"/>
  <path class="cls-12" d="M327.58,27.89h3.48c-.05-.53-.18-.91-.4-1.18-.34-.41-.78-.61-1.31-.61-.49,0-.9.17-1.22.49-.34.32-.52.76-.55,1.3ZM331.05,29.59l1.09.13c-.18.65-.5,1.14-.96,1.49-.47.35-1.06.52-1.78.52-.91,0-1.64-.28-2.17-.83-.53-.55-.79-1.34-.79-2.36s.26-1.86.8-2.44c.53-.58,1.24-.86,2.1-.86s1.51.29,2.04.85c.53.56.79,1.36.79,2.39,0,.07-.01.16-.01.28h-4.64c.04.7.23,1.21.58,1.57.35.36.78.54,1.31.54.38,0,.72-.1,1-.3.26-.19.48-.52.65-.97Z"/>
  <path class="cls-12" d="M333.46,31.59v-6.23h.95v.89c.46-.67,1.12-1.02,1.98-1.02.37,0,.72.07,1.03.2.31.13.55.31.71.53s.26.48.32.78c.04.19.06.54.06,1.02v3.83h-1.06v-3.78c0-.43-.05-.74-.12-.96-.08-.22-.23-.38-.43-.52-.22-.12-.46-.19-.73-.19-.46,0-.85.14-1.18.43s-.48.83-.48,1.62v3.4h-1.06Z"/>
  <path class="cls-12" d="M340.84,28.49c0,.8.16,1.4.49,1.79.34.4.73.59,1.19.59s.85-.18,1.18-.56c.32-.37.49-.95.49-1.72,0-.85-.17-1.48-.49-1.88-.34-.4-.73-.6-1.21-.6s-.86.19-1.18.58c-.31.38-.47,1-.47,1.81ZM344.16,31.59v-.78c-.4.61-.97.91-1.74.91-.5,0-.96-.13-1.37-.41-.42-.26-.74-.65-.97-1.14-.23-.48-.34-1.04-.34-1.69,0-.61.1-1.18.31-1.68.2-.5.52-.9.92-1.16.41-.26.88-.41,1.39-.41.37,0,.71.08,1.01.24.29.16.53.36.71.61v-3.08h1.06v8.59h-.98Z"/>
  <path class="cls-12" d="M347.59,27.89h3.48c-.05-.53-.18-.91-.4-1.18-.34-.41-.78-.61-1.31-.61-.49,0-.9.17-1.22.49-.34.32-.52.76-.55,1.3ZM351.06,29.59l1.09.13c-.18.65-.5,1.14-.96,1.49-.47.35-1.06.52-1.78.52-.91,0-1.64-.28-2.17-.83-.53-.55-.79-1.34-.79-2.36s.26-1.86.8-2.44c.53-.58,1.24-.86,2.1-.86s1.51.29,2.04.85c.53.56.79,1.36.79,2.39,0,.07-.01.16-.01.28h-4.64c.04.7.23,1.21.58,1.57.35.36.78.54,1.31.54.38,0,.72-.1,1-.3.26-.19.48-.52.65-.97Z"/>
  <path class="cls-12" d="M353.47,31.59v-6.23h.95v.89c.46-.67,1.12-1.02,1.98-1.02.37,0,.72.07,1.03.2.31.13.55.31.71.53s.26.48.32.78c.04.19.06.54.06,1.02v3.83h-1.06v-3.78c0-.43-.05-.74-.12-.96-.08-.22-.23-.38-.43-.52-.22-.12-.46-.19-.73-.19-.46,0-.85.14-1.18.43s-.48.83-.48,1.62v3.4h-1.06Z"/>
  <path class="cls-12" d="M364.2,29.31l1.04.13c-.12.72-.41,1.28-.88,1.68-.47.41-1.04.6-1.72.6-.86,0-1.55-.28-2.06-.83-.52-.55-.77-1.34-.77-2.39,0-.67.11-1.26.34-1.76.22-.5.55-.88,1.01-1.13.46-.25.95-.38,1.49-.38.67,0,1.22.18,1.66.52s.71.83.83,1.45l-1.02.16c-.1-.41-.28-.72-.52-.94-.25-.22-.55-.32-.9-.32-.54,0-.97.19-1.31.58-.34.38-.49.98-.49,1.8s.16,1.45.48,1.82c.31.38.73.56,1.26.56.41,0,.76-.12,1.03-.37.28-.25.46-.65.53-1.18Z"/>
  <path class="cls-12" d="M366.1,33.98l-.12-1c.23.06.43.1.61.1.23,0,.41-.05.55-.12.14-.08.25-.19.35-.32.07-.11.18-.37.32-.79.02-.06.05-.14.1-.25l-2.36-6.23h1.14l1.3,3.61c.17.46.31.94.44,1.44.12-.48.26-.96.43-1.42l1.33-3.64h1.06l-2.36,6.32c-.26.67-.46,1.14-.59,1.4-.19.35-.41.6-.65.77-.24.16-.53.24-.86.24-.22,0-.44-.05-.68-.12Z"/>
  <path class="cls-12" d="M381.75,28.58l1.14.29c-.24.94-.67,1.66-1.3,2.14-.62.48-1.38.72-2.27.72s-1.68-.18-2.26-.55c-.59-.37-1.03-.91-1.33-1.63-.3-.72-.44-1.49-.44-2.3,0-.89.17-1.67.5-2.34.34-.67.83-1.18,1.46-1.52.62-.34,1.32-.52,2.09-.52.85,0,1.57.23,2.16.66.59.43,1,1.04,1.22,1.84l-1.12.26c-.2-.62-.49-1.07-.86-1.36-.38-.29-.85-.43-1.43-.43-.67,0-1.22.17-1.67.48s-.76.74-.94,1.27c-.18.53-.26,1.08-.26,1.64,0,.74.11,1.38.32,1.92.22.55.54.96,1,1.22.44.26.92.4,1.45.4.64,0,1.18-.18,1.62-.55.43-.36.73-.91.9-1.63Z"/>
  <path class="cls-12" d="M388.12,28.47c-.38.16-.96.29-1.73.4-.43.07-.74.14-.92.22s-.31.19-.41.34c-.1.16-.14.32-.14.5,0,.29.1.52.31.71.22.19.53.28.94.28s.77-.08,1.08-.26.55-.42.71-.73c.11-.24.17-.59.17-1.06v-.38ZM388.2,30.83c-.4.34-.77.58-1.13.71-.36.12-.76.19-1.16.19-.68,0-1.21-.16-1.57-.49-.37-.34-.55-.76-.55-1.28,0-.3.06-.58.2-.83.14-.25.32-.46.55-.61.22-.14.47-.26.76-.35.2-.05.52-.1.94-.16.85-.1,1.48-.22,1.88-.36v-.28c0-.43-.1-.73-.29-.91-.28-.24-.68-.36-1.21-.36s-.86.1-1.1.26c-.24.18-.41.49-.52.92l-1.03-.14c.1-.43.25-.79.47-1.07.22-.26.52-.48.92-.62.41-.14.88-.22,1.42-.22s.96.07,1.3.19.58.28.73.47c.16.19.26.42.32.71.04.19.06.52.06.98v1.4c0,.98.01,1.6.06,1.86.05.26.13.5.28.74h-1.1c-.12-.22-.19-.47-.22-.77Z"/>
  <path class="cls-12" d="M393.12,30.65l.16.94c-.31.05-.58.08-.8.08-.38,0-.68-.06-.89-.17-.22-.12-.36-.28-.44-.48-.1-.19-.13-.61-.13-1.25v-3.58h-.77v-.83h.77v-1.54l1.04-.64v2.17h1.07v.83h-1.07v3.64c0,.31.01.5.06.59.04.08.1.16.18.2.08.05.2.07.36.07.12,0,.28-.01.47-.05Z"/>
  <path class="cls-12" d="M394.95,27.89h3.48c-.05-.53-.18-.91-.4-1.18-.34-.41-.78-.61-1.31-.61-.49,0-.9.17-1.22.49-.34.32-.52.76-.55,1.3ZM398.41,29.59l1.09.13c-.18.65-.5,1.14-.96,1.49-.47.35-1.06.52-1.78.52-.91,0-1.64-.28-2.17-.83-.53-.55-.79-1.34-.79-2.36s.26-1.86.8-2.44c.53-.58,1.24-.86,2.1-.86s1.51.29,2.04.85c.53.56.79,1.36.79,2.39,0,.07-.01.16-.01.28h-4.64c.04.7.23,1.21.58,1.57.35.36.78.54,1.31.54.38,0,.72-.1,1-.3.26-.19.48-.52.65-.97Z"/>
  <path class="cls-12" d="M401.51,28.37c0,.82.16,1.42.48,1.79.32.38.73.56,1.22.56s.88-.18,1.21-.55c.32-.37.49-.96.49-1.76,0-.76-.17-1.33-.5-1.72s-.74-.59-1.22-.59-.86.19-1.19.58c-.34.38-.49.95-.49,1.69ZM400.63,32.1l1.02.16c.05.31.17.54.36.68.26.19.61.3,1.07.3.48,0,.86-.11,1.13-.3.26-.19.46-.47.55-.82.05-.22.07-.66.07-1.34-.47.55-1.04.82-1.73.82-.86,0-1.52-.3-1.99-.92-.47-.61-.7-1.36-.7-2.22,0-.59.11-1.14.32-1.64s.53-.89.94-1.16c.41-.26.89-.41,1.44-.41.73,0,1.33.3,1.81.89v-.76h.97v5.39c0,.96-.11,1.63-.3,2.04-.19.41-.5.72-.94.96-.43.23-.95.35-1.57.35-.74,0-1.34-.17-1.8-.5-.46-.34-.68-.83-.66-1.5Z"/>
  <path class="cls-12" d="M408.19,28.49c0,.79.17,1.39.52,1.79.34.4.78.59,1.31.59s.96-.19,1.31-.59.53-1.01.53-1.82c0-.77-.18-1.34-.53-1.75-.36-.4-.79-.6-1.31-.6s-.97.2-1.31.6c-.35.4-.52,1-.52,1.79ZM407.1,28.49c0-1.15.31-2,.96-2.57.53-.46,1.19-.68,1.96-.68.85,0,1.55.29,2.1.84.54.56.82,1.33.82,2.32,0,.8-.12,1.44-.36,1.9-.24.46-.6.82-1.06,1.07-.46.24-.96.37-1.5.37-.88,0-1.58-.28-2.11-.83-.54-.55-.8-1.36-.8-2.41Z"/>
  <path class="cls-12" d="M414.16,31.59v-6.23h.95v.95c.24-.43.46-.72.67-.86.2-.14.43-.22.67-.22.36,0,.72.12,1.09.34l-.37.98c-.26-.14-.52-.23-.77-.23s-.44.07-.62.2c-.19.14-.32.34-.4.58-.12.38-.17.79-.17,1.24v3.25h-1.06Z"/>
  <path class="cls-12" d="M418.12,33.98l-.12-1c.23.06.43.1.61.1.23,0,.41-.05.55-.12.14-.08.25-.19.35-.32.07-.11.18-.37.32-.79.02-.06.05-.14.1-.25l-2.36-6.23h1.14l1.3,3.61c.17.46.31.94.44,1.44.12-.48.26-.96.43-1.42l1.33-3.64h1.06l-2.36,6.32c-.26.67-.46,1.14-.59,1.4-.19.35-.41.6-.65.77-.24.16-.53.24-.86.24-.22,0-.44-.05-.68-.12Z"/>
  <rect class="cls-10" x="289.42" y="39.94" width="22" height="7.7"/>
  <rect class="cls-7" x="289.42" y="39.94" width="22" height="7.7"/>
  <path class="cls-12" d="M326.24,39.77h1.05v4.55c0,.79-.1,1.43-.28,1.89-.18.46-.51.84-.97,1.12-.47.29-1.09.43-1.84.43s-1.35-.12-1.82-.37c-.47-.24-.8-.61-1-1.09-.2-.48-.3-1.14-.3-1.98v-4.55h1.03v4.54c0,.69.05,1.2.19,1.52.13.33.35.57.66.75.31.18.68.26,1.14.26.76,0,1.3-.16,1.63-.52.33-.35.49-1.02.49-2.01v-4.54Z"/>
  <path class="cls-12" d="M328.89,47.64v-5.71h.87v.81c.42-.62,1.02-.93,1.82-.93.34,0,.66.07.95.19.29.12.51.29.65.48s.24.44.3.71c.03.18.05.49.05.93v3.51h-.97v-3.46c0-.4-.04-.68-.11-.88-.08-.2-.21-.35-.4-.47-.2-.11-.42-.18-.67-.18-.42,0-.78.13-1.08.4-.3.26-.44.76-.44,1.48v3.11h-.97Z"/>
  <path class="cls-12" d="M335.01,47.64v-5.71h.87v.8c.18-.27.41-.49.7-.67.3-.17.64-.25,1.02-.25.42,0,.76.09,1.03.26.26.18.46.43.57.74.45-.66,1.03-1,1.76-1,.57,0,1,.16,1.31.47s.46.79.46,1.44v3.92h-.97v-3.6c0-.37-.03-.65-.1-.82s-.18-.31-.34-.42c-.17-.1-.35-.15-.57-.15-.41,0-.74.14-1,.41s-.4.69-.4,1.28v3.31h-.97v-3.71c0-.43-.09-.75-.24-.97-.15-.21-.42-.32-.77-.32-.27,0-.53.08-.76.22-.23.14-.4.35-.49.63-.11.27-.15.67-.15,1.19v2.96h-.97Z"/>
  <path class="cls-12" d="M347.81,44.78c-.35.14-.88.26-1.58.36-.4.07-.68.13-.85.2-.17.07-.29.18-.37.31-.09.14-.13.3-.13.46,0,.26.09.47.29.65s.48.25.86.25.7-.08.99-.24c.29-.17.51-.39.65-.67.1-.22.15-.54.15-.97v-.35ZM347.89,46.94c-.36.31-.7.53-1.03.65-.33.11-.69.18-1.07.18-.63,0-1.11-.14-1.44-.45-.34-.31-.51-.69-.51-1.18,0-.28.05-.53.19-.76.13-.23.3-.42.51-.56.2-.13.43-.24.69-.32.19-.04.47-.09.86-.14.78-.09,1.35-.2,1.73-.33v-.25c0-.4-.09-.67-.26-.84-.25-.22-.63-.33-1.11-.33s-.79.09-1.01.24c-.22.16-.37.45-.47.85l-.95-.13c.09-.4.23-.73.43-.98.2-.24.47-.44.85-.57.37-.13.8-.2,1.3-.2s.88.07,1.19.18c.31.11.53.25.67.43.14.18.24.39.3.65.03.18.06.47.06.9v1.29c0,.9.01,1.46.05,1.7s.12.46.25.68h-1.01c-.11-.2-.18-.43-.2-.7Z"/>
  <path class="cls-12" d="M350.28,47.64v-5.71h.87v.81c.42-.62,1.02-.93,1.82-.93.34,0,.66.07.95.19.29.12.51.29.65.48s.24.44.3.71c.03.18.05.49.05.93v3.51h-.97v-3.46c0-.4-.04-.68-.11-.88-.08-.2-.21-.35-.4-.47-.2-.11-.42-.18-.67-.18-.42,0-.78.13-1.08.4-.3.26-.44.76-.44,1.48v3.11h-.97Z"/>
  <path class="cls-12" d="M360.04,44.78c-.35.14-.88.26-1.58.36-.4.07-.68.13-.85.2-.17.07-.29.18-.37.31-.09.14-.13.3-.13.46,0,.26.09.47.29.65s.48.25.86.25.7-.08.99-.24c.29-.17.51-.39.65-.67.1-.22.15-.54.15-.97v-.35ZM360.12,46.94c-.36.31-.7.53-1.03.65-.33.11-.69.18-1.07.18-.63,0-1.11-.14-1.44-.45-.34-.31-.51-.69-.51-1.18,0-.28.05-.53.19-.76.13-.23.3-.42.51-.56.2-.13.43-.24.69-.32.19-.04.47-.09.86-.14.78-.09,1.35-.2,1.73-.33v-.25c0-.4-.09-.67-.26-.84-.25-.22-.63-.33-1.11-.33s-.79.09-1.01.24c-.22.16-.37.45-.47.85l-.95-.13c.09-.4.23-.73.43-.98.2-.24.47-.44.85-.57.37-.13.8-.2,1.3-.2s.88.07,1.19.18c.31.11.53.25.67.43.14.18.24.39.3.65.03.18.06.47.06.9v1.29c0,.9.01,1.46.05,1.7s.12.46.25.68h-1.01c-.11-.2-.18-.43-.2-.7Z"/>
  <path class="cls-12" d="M363.14,44.68c0,.75.14,1.3.44,1.64.3.35.67.52,1.12.52s.8-.16,1.11-.51c.3-.34.45-.88.45-1.62,0-.69-.15-1.22-.46-1.57-.31-.35-.68-.54-1.12-.54s-.79.18-1.09.53c-.31.35-.45.87-.45,1.55ZM362.34,48.1l.93.14c.04.29.15.49.33.63.24.18.56.27.98.27.44,0,.79-.1,1.03-.27s.42-.43.51-.75c.04-.2.07-.61.07-1.23-.43.51-.96.75-1.58.75-.79,0-1.4-.27-1.83-.85-.43-.56-.64-1.24-.64-2.04,0-.54.1-1.05.3-1.51s.48-.81.86-1.07c.37-.24.81-.37,1.32-.37.67,0,1.22.27,1.66.81v-.69h.89v4.94c0,.88-.1,1.5-.27,1.87s-.46.66-.86.88c-.4.21-.87.32-1.44.32-.68,0-1.23-.15-1.65-.46-.42-.31-.63-.76-.61-1.38Z"/>
  <path class="cls-12" d="M369.36,44.24h3.19c-.04-.48-.17-.84-.36-1.08-.31-.37-.71-.56-1.2-.56-.45,0-.82.15-1.12.45-.31.3-.47.69-.51,1.19ZM372.54,45.8l1,.12c-.16.59-.46,1.05-.88,1.36-.43.32-.97.47-1.63.47-.84,0-1.51-.25-1.99-.76s-.73-1.23-.73-2.17.24-1.71.74-2.23c.48-.53,1.13-.79,1.92-.79s1.39.26,1.87.78.73,1.24.73,2.19c0,.07-.01.14-.01.25h-4.26c.03.64.21,1.11.53,1.44.32.33.72.49,1.2.49.35,0,.66-.09.91-.28.24-.18.44-.47.59-.89Z"/>
  <path class="cls-12" d="M375.4,44.79c0,.74.14,1.29.45,1.64.31.36.67.54,1.09.54s.78-.17,1.08-.52c.3-.34.45-.87.45-1.57,0-.78-.15-1.35-.45-1.73-.31-.36-.67-.55-1.11-.55s-.79.18-1.08.53c-.29.35-.43.91-.43,1.66ZM378.44,47.64v-.71c-.36.56-.89.84-1.6.84-.46,0-.88-.12-1.25-.37-.39-.24-.68-.59-.89-1.05-.21-.44-.31-.96-.31-1.55,0-.56.09-1.08.29-1.54.19-.46.47-.82.85-1.07.37-.24.8-.37,1.28-.37.34,0,.65.08.92.22.26.14.48.33.65.56v-2.83h.97v7.88h-.9Z"/>
  <path class="cls-12" d="M385.77,49.94c-.54-.67-.99-1.45-1.35-2.34-.37-.9-.55-1.84-.55-2.8,0-.85.13-1.66.41-2.45.32-.9.81-1.8,1.5-2.71h.69c-.44.75-.73,1.29-.86,1.6-.22.49-.4,1.01-.52,1.55-.15.67-.23,1.34-.23,2.01,0,1.73.53,3.43,1.61,5.15h-.69Z"/>
  <polygon class="cls-12" points="389.71 47.64 389.71 40.7 387.11 40.7 387.11 39.77 393.36 39.77 393.36 40.7 390.75 40.7 390.75 47.64 389.71 47.64"/>
  <path class="cls-12" d="M393.73,44.79c0,.73.15,1.28.47,1.64.31.36.71.54,1.2.54s.88-.18,1.2-.54.48-.92.48-1.67c0-.7-.17-1.23-.48-1.61-.33-.36-.73-.55-1.2-.55s-.89.19-1.2.55c-.32.36-.47.91-.47,1.64ZM392.72,44.79c0-1.06.29-1.84.88-2.35.48-.42,1.09-.63,1.79-.63.78,0,1.42.26,1.92.77.49.52.75,1.22.75,2.12,0,.74-.11,1.32-.33,1.74s-.55.75-.97.98c-.42.22-.88.34-1.38.34-.8,0-1.45-.25-1.94-.76-.49-.51-.74-1.24-.74-2.21Z"/>
  <path class="cls-12" d="M400.08,44.83c0,.74.14,1.28.44,1.63.3.35.66.52,1.08.52s.79-.18,1.1-.54c.31-.36.46-.92.46-1.69,0-.73-.15-1.27-.45-1.63-.3-.35-.65-.54-1.07-.54s-.78.2-1.09.58c-.32.39-.47.95-.47,1.67ZM399.2,49.82v-7.89h.88v.75c.2-.29.44-.51.7-.65.26-.14.57-.22.95-.22.48,0,.91.13,1.29.37.37.25.65.6.85,1.07.19.46.29.96.29,1.5,0,.58-.11,1.11-.32,1.57-.21.47-.52.84-.91,1.08s-.81.36-1.25.36c-.33,0-.62-.07-.87-.2-.26-.13-.47-.3-.63-.52v2.77h-.97Z"/>
  <path class="cls-12" d="M405.96,49.94h-.69c1.07-1.72,1.61-3.42,1.61-5.15,0-.67-.08-1.34-.23-2-.13-.53-.3-1.04-.52-1.55-.14-.31-.43-.85-.86-1.61h.69c.66.9,1.15,1.8,1.48,2.71.27.79.42,1.61.42,2.45,0,.97-.19,1.9-.56,2.8-.37.89-.81,1.67-1.34,2.34Z"/>
  <rect class="cls-13" x="289.42" y="55.77" width="22" height="7.7"/>
  <rect class="cls-7" x="289.42" y="55.77" width="22" height="7.7"/>
  <path class="cls-12" d="M326.24,55.59h1.05v4.55c0,.79-.1,1.43-.28,1.89-.18.46-.51.84-.97,1.12-.47.29-1.09.43-1.84.43s-1.35-.12-1.82-.37c-.47-.24-.8-.61-1-1.09-.2-.48-.3-1.14-.3-1.98v-4.55h1.03v4.54c0,.69.05,1.2.19,1.52.13.33.35.57.66.75.31.18.68.26,1.14.26.76,0,1.3-.16,1.63-.52.33-.35.49-1.02.49-2.01v-4.54Z"/>
  <path class="cls-12" d="M328.89,63.47v-5.71h.87v.81c.42-.62,1.02-.93,1.82-.93.34,0,.66.07.95.19.29.12.51.29.65.48s.24.44.3.71c.03.18.05.49.05.93v3.51h-.97v-3.46c0-.4-.04-.68-.11-.88-.08-.2-.21-.35-.4-.47-.2-.11-.42-.18-.67-.18-.42,0-.78.13-1.08.4-.3.26-.44.76-.44,1.48v3.11h-.97Z"/>
  <path class="cls-12" d="M335.01,63.47v-5.71h.87v.8c.18-.27.41-.49.7-.67.3-.17.64-.25,1.02-.25.42,0,.76.09,1.03.26.26.18.46.43.57.74.45-.66,1.03-1,1.76-1,.57,0,1,.16,1.31.47s.46.79.46,1.44v3.92h-.97v-3.6c0-.37-.03-.65-.1-.82s-.18-.31-.34-.42c-.17-.1-.35-.15-.57-.15-.41,0-.74.14-1,.41s-.4.69-.4,1.28v3.31h-.97v-3.71c0-.43-.09-.75-.24-.97-.15-.21-.42-.32-.77-.32-.27,0-.53.08-.76.22-.23.14-.4.35-.49.63-.11.27-.15.67-.15,1.19v2.96h-.97Z"/>
  <path class="cls-12" d="M347.81,60.61c-.35.14-.88.26-1.58.36-.4.07-.68.13-.85.2-.17.07-.29.18-.37.31-.09.14-.13.3-.13.46,0,.26.09.47.29.65s.48.25.86.25.7-.08.99-.24c.29-.17.51-.39.65-.67.1-.22.15-.54.15-.97v-.35ZM347.89,62.77c-.36.31-.7.53-1.03.65-.33.11-.69.18-1.07.18-.63,0-1.11-.14-1.44-.45-.34-.31-.51-.69-.51-1.18,0-.28.05-.53.19-.76.13-.23.3-.42.51-.56.2-.13.43-.24.69-.32.19-.04.47-.09.86-.14.78-.09,1.35-.2,1.73-.33v-.25c0-.4-.09-.67-.26-.84-.25-.22-.63-.33-1.11-.33s-.79.09-1.01.24c-.22.16-.37.45-.47.85l-.95-.13c.09-.4.23-.73.43-.98.2-.24.47-.44.85-.57.37-.13.8-.2,1.3-.2s.88.07,1.19.18c.31.11.53.25.67.43.14.18.24.39.3.65.03.18.06.47.06.9v1.29c0,.9.01,1.46.05,1.7s.12.46.25.68h-1.01c-.11-.2-.18-.43-.2-.7Z"/>
  <path class="cls-12" d="M350.28,63.47v-5.71h.87v.81c.42-.62,1.02-.93,1.82-.93.34,0,.66.07.95.19.29.12.51.29.65.48s.24.44.3.71c.03.18.05.49.05.93v3.51h-.97v-3.46c0-.4-.04-.68-.11-.88-.08-.2-.21-.35-.4-.47-.2-.11-.42-.18-.67-.18-.42,0-.78.13-1.08.4-.3.26-.44.76-.44,1.48v3.11h-.97Z"/>
  <path class="cls-12" d="M360.04,60.61c-.35.14-.88.26-1.58.36-.4.07-.68.13-.85.2-.17.07-.29.18-.37.31-.09.14-.13.3-.13.46,0,.26.09.47.29.65s.48.25.86.25.7-.08.99-.24c.29-.17.51-.39.65-.67.1-.22.15-.54.15-.97v-.35ZM360.12,62.77c-.36.31-.7.53-1.03.65-.33.11-.69.18-1.07.18-.63,0-1.11-.14-1.44-.45-.34-.31-.51-.69-.51-1.18,0-.28.05-.53.19-.76.13-.23.3-.42.51-.56.2-.13.43-.24.69-.32.19-.04.47-.09.86-.14.78-.09,1.35-.2,1.73-.33v-.25c0-.4-.09-.67-.26-.84-.25-.22-.63-.33-1.11-.33s-.79.09-1.01.24c-.22.16-.37.45-.47.85l-.95-.13c.09-.4.23-.73.43-.98.2-.24.47-.44.85-.57.37-.13.8-.2,1.3-.2s.88.07,1.19.18c.31.11.53.25.67.43.14.18.24.39.3.65.03.18.06.47.06.9v1.29c0,.9.01,1.46.05,1.7s.12.46.25.68h-1.01c-.11-.2-.18-.43-.2-.7Z"/>
  <path class="cls-12" d="M363.14,60.51c0,.75.14,1.3.44,1.64.3.35.67.52,1.12.52s.8-.16,1.11-.51c.3-.34.45-.88.45-1.62,0-.69-.15-1.22-.46-1.57-.31-.35-.68-.54-1.12-.54s-.79.18-1.09.53c-.31.35-.45.87-.45,1.55ZM362.34,63.93l.93.14c.04.29.15.49.33.63.24.18.56.27.98.27.44,0,.79-.1,1.03-.27s.42-.43.51-.75c.04-.2.07-.61.07-1.23-.43.51-.96.75-1.58.75-.79,0-1.4-.27-1.83-.85-.43-.56-.64-1.24-.64-2.04,0-.54.1-1.05.3-1.51s.48-.81.86-1.07c.37-.24.81-.37,1.32-.37.67,0,1.22.27,1.66.81v-.69h.89v4.94c0,.88-.1,1.5-.27,1.87s-.46.66-.86.88c-.4.21-.87.32-1.44.32-.68,0-1.23-.15-1.65-.46-.42-.31-.63-.76-.61-1.38Z"/>
  <path class="cls-12" d="M369.36,60.07h3.19c-.04-.48-.17-.84-.36-1.08-.31-.37-.71-.56-1.2-.56-.45,0-.82.15-1.12.45-.31.3-.47.69-.51,1.19ZM372.54,61.63l1,.12c-.16.59-.46,1.05-.88,1.36-.43.32-.97.47-1.63.47-.84,0-1.51-.25-1.99-.76s-.73-1.23-.73-2.17.24-1.71.74-2.23c.48-.53,1.13-.79,1.92-.79s1.39.26,1.87.78.73,1.24.73,2.19c0,.07-.01.14-.01.25h-4.26c.03.64.21,1.11.53,1.44.32.33.72.49,1.2.49.35,0,.66-.09.91-.28.24-.18.44-.47.59-.89Z"/>
  <path class="cls-12" d="M375.4,60.62c0,.74.14,1.29.45,1.64.31.36.67.54,1.09.54s.78-.17,1.08-.52c.3-.34.45-.87.45-1.57,0-.78-.15-1.35-.45-1.73-.31-.36-.67-.55-1.11-.55s-.79.18-1.08.53c-.29.35-.43.91-.43,1.66ZM378.44,63.47v-.71c-.36.56-.89.84-1.6.84-.46,0-.88-.12-1.25-.37-.39-.24-.68-.59-.89-1.05-.21-.44-.31-.96-.31-1.55,0-.56.09-1.08.29-1.54.19-.46.47-.82.85-1.07.37-.24.8-.37,1.28-.37.34,0,.65.08.92.22.26.14.48.33.65.56v-2.83h.97v7.88h-.9Z"/>
  <path class="cls-12" d="M385.77,65.77c-.54-.67-.99-1.45-1.35-2.34-.37-.9-.55-1.84-.55-2.8,0-.85.13-1.66.41-2.45.32-.9.81-1.8,1.5-2.71h.69c-.44.75-.73,1.29-.86,1.6-.22.49-.4,1.01-.52,1.55-.15.67-.23,1.34-.23,2.01,0,1.73.53,3.43,1.61,5.15h-.69Z"/>
  <polygon class="cls-12" points="389.71 63.47 389.71 56.53 387.11 56.53 387.11 55.59 393.36 55.59 393.36 56.53 390.75 56.53 390.75 63.47 389.71 63.47"/>
  <path class="cls-12" d="M393.89,63.47v-5.71h.87v.87c.22-.4.42-.66.62-.79.19-.13.4-.2.62-.2.33,0,.66.11,1,.31l-.34.9c-.24-.13-.47-.21-.7-.21s-.41.07-.57.19c-.18.13-.3.31-.36.53-.11.35-.15.73-.15,1.13v2.98h-.97Z"/>
  <path class="cls-12" d="M401.2,60.61c-.35.14-.88.26-1.58.36-.4.07-.68.13-.85.2-.17.07-.29.18-.37.31-.09.14-.13.3-.13.46,0,.26.09.47.29.65s.48.25.86.25.7-.08.99-.24c.29-.17.51-.39.65-.67.1-.22.15-.54.15-.97v-.35ZM401.28,62.77c-.36.31-.7.53-1.03.65-.33.11-.69.18-1.07.18-.63,0-1.11-.14-1.44-.45-.34-.31-.51-.69-.51-1.18,0-.28.05-.53.19-.76.13-.23.3-.42.51-.56.2-.13.43-.24.69-.32.19-.04.47-.09.86-.14.78-.09,1.35-.2,1.73-.33v-.25c0-.4-.09-.67-.26-.84-.25-.22-.63-.33-1.11-.33s-.79.09-1.01.24c-.22.16-.37.45-.47.85l-.95-.13c.09-.4.23-.73.43-.98.2-.24.47-.44.85-.57.37-.13.8-.2,1.3-.2s.88.07,1.19.18c.31.11.53.25.67.43.14.18.24.39.3.65.03.18.05.47.05.9v1.29c0,.9.01,1.46.05,1.7s.12.46.25.68h-1.01c-.11-.2-.18-.43-.2-.7Z"/>
  <path class="cls-12" d="M403.68,63.47v-5.71h.87v.81c.42-.62,1.02-.93,1.82-.93.34,0,.66.07.95.19.29.12.51.29.65.48s.24.44.3.71c.03.18.05.49.05.93v3.51h-.97v-3.46c0-.4-.04-.68-.11-.88-.08-.2-.21-.35-.4-.47-.2-.11-.42-.18-.67-.18-.42,0-.78.13-1.08.4-.3.26-.44.76-.44,1.48v3.11h-.97Z"/>
  <path class="cls-12" d="M409.41,61.76l.96-.14c.04.38.2.68.44.88s.59.3,1.03.3.77-.09.99-.26c.21-.18.32-.4.32-.64,0-.22-.1-.39-.29-.52-.13-.09-.46-.2-.99-.33-.7-.18-1.2-.33-1.47-.46-.27-.13-.48-.31-.63-.54-.14-.23-.21-.48-.21-.77,0-.25.05-.48.18-.7.11-.22.28-.4.47-.54.15-.11.35-.2.62-.28.26-.08.54-.12.84-.12.44,0,.84.07,1.18.2.34.13.59.3.76.52.15.22.26.52.33.88l-.95.13c-.04-.29-.18-.52-.37-.68-.21-.17-.49-.25-.87-.25-.45,0-.77.08-.96.22-.2.15-.29.32-.29.52,0,.13.03.24.12.34.08.11.2.19.37.25.09.04.37.12.85.25.68.18,1.17.33,1.43.44.26.12.48.3.64.52s.23.49.23.83-.1.63-.29.91-.46.49-.81.65c-.35.15-.76.23-1.2.23-.75,0-1.31-.14-1.69-.45-.4-.31-.64-.76-.74-1.38Z"/>
  <path class="cls-12" d="M415.29,63.47v-5.71h.97v5.71h-.97ZM415.29,56.7v-1.11h.97v1.11h-.97Z"/>
  <path class="cls-12" d="M419.85,62.6l.14.86c-.29.04-.53.08-.74.08-.35,0-.63-.06-.81-.15-.2-.11-.33-.25-.41-.44-.09-.18-.12-.56-.12-1.14v-3.28h-.7v-.76h.7v-1.41l.96-.58v1.99h.98v.76h-.98v3.33c0,.29.01.46.05.54.03.08.09.14.17.19s.19.07.33.07c.11,0,.25-.01.43-.04Z"/>
  <path class="cls-12" d="M420.79,63.47v-5.71h.97v5.71h-.97ZM420.79,56.7v-1.11h.97v1.11h-.97Z"/>
  <path class="cls-12" d="M424.82,63.47l-2.17-5.71h1.01l1.23,3.42c.13.37.25.75.36,1.14.09-.3.21-.66.36-1.08l1.26-3.49h.99l-2.16,5.71h-.9Z"/>
  <path class="cls-12" d="M429.46,60.07h3.19c-.04-.48-.17-.84-.36-1.08-.31-.37-.71-.56-1.2-.56-.45,0-.82.15-1.12.45-.31.3-.47.69-.51,1.19ZM432.64,61.63l1,.12c-.16.59-.46,1.05-.88,1.36-.43.32-.97.47-1.63.47-.84,0-1.51-.25-1.99-.76s-.73-1.23-.73-2.17.24-1.71.74-2.23c.48-.53,1.13-.79,1.92-.79s1.39.26,1.87.78.73,1.24.73,2.19c0,.07-.01.14-.01.25h-4.26c.03.64.21,1.11.53,1.44.32.33.72.49,1.2.49.35,0,.66-.09.91-.28.24-.18.44-.47.59-.89Z"/>
  <path class="cls-12" d="M435.49,65.77h-.69c1.07-1.72,1.61-3.42,1.61-5.15,0-.67-.08-1.34-.23-2-.13-.53-.3-1.04-.52-1.55-.14-.31-.43-.85-.86-1.61h.69c.66.9,1.15,1.8,1.48,2.71.27.79.42,1.61.42,2.45,0,.97-.19,1.9-.56,2.8-.37.89-.81,1.67-1.34,2.34Z"/>
  <rect class="cls-11" x="289.42" y="71.6" width="22" height="7.7"/>
  <rect class="cls-7" x="289.42" y="71.6" width="22" height="7.7"/>
  <path class="cls-12" d="M326.24,71.42h1.05v4.55c0,.79-.1,1.43-.28,1.89-.18.46-.51.84-.97,1.12-.47.29-1.09.43-1.84.43s-1.35-.12-1.82-.37c-.47-.24-.8-.61-1-1.09-.2-.48-.3-1.14-.3-1.98v-4.55h1.03v4.54c0,.69.05,1.2.19,1.52.13.33.35.57.66.75.31.18.68.26,1.14.26.76,0,1.3-.16,1.63-.52.33-.35.49-1.02.49-2.01v-4.54Z"/>
  <path class="cls-12" d="M328.89,79.3v-5.71h.87v.81c.42-.62,1.02-.93,1.82-.93.34,0,.66.07.95.19.29.12.51.29.65.48s.24.44.3.71c.03.18.05.49.05.93v3.51h-.97v-3.46c0-.4-.04-.68-.11-.88-.08-.2-.21-.35-.4-.47-.2-.11-.42-.18-.67-.18-.42,0-.78.13-1.08.4-.3.26-.44.76-.44,1.48v3.11h-.97Z"/>
  <path class="cls-12" d="M335.01,79.3v-5.71h.87v.8c.18-.27.41-.49.7-.67.3-.17.64-.25,1.02-.25.42,0,.76.09,1.03.26.26.18.46.43.57.74.45-.66,1.03-1,1.76-1,.57,0,1,.16,1.31.47s.46.79.46,1.44v3.92h-.97v-3.6c0-.37-.03-.65-.1-.82s-.18-.31-.34-.42c-.17-.1-.35-.15-.57-.15-.41,0-.74.14-1,.41s-.4.69-.4,1.28v3.31h-.97v-3.71c0-.43-.09-.75-.24-.97-.15-.21-.42-.32-.77-.32-.27,0-.53.08-.76.22-.23.14-.4.35-.49.63-.11.27-.15.67-.15,1.19v2.96h-.97Z"/>
  <path class="cls-12" d="M347.81,76.44c-.35.14-.88.26-1.58.36-.4.07-.68.13-.85.2-.17.07-.29.18-.37.31-.09.14-.13.3-.13.46,0,.26.09.47.29.65s.48.25.86.25.7-.08.99-.24c.29-.17.51-.39.65-.67.1-.22.15-.54.15-.97v-.35ZM347.89,78.59c-.36.31-.7.53-1.03.65-.33.11-.69.18-1.07.18-.63,0-1.11-.14-1.44-.45-.34-.31-.51-.69-.51-1.18,0-.28.05-.53.19-.76.13-.23.3-.42.51-.56.2-.13.43-.24.69-.32.19-.04.47-.09.86-.14.78-.09,1.35-.2,1.73-.33v-.25c0-.4-.09-.67-.26-.84-.25-.22-.63-.33-1.11-.33s-.79.09-1.01.24c-.22.16-.37.45-.47.85l-.95-.13c.09-.4.23-.73.43-.98.2-.24.47-.44.85-.57.37-.13.8-.2,1.3-.2s.88.07,1.19.18c.31.11.53.25.67.43.14.18.24.39.3.65.03.18.06.47.06.9v1.29c0,.9.01,1.46.05,1.7s.12.46.25.68h-1.01c-.11-.2-.18-.43-.2-.7Z"/>
  <path class="cls-12" d="M350.28,79.3v-5.71h.87v.81c.42-.62,1.02-.93,1.82-.93.34,0,.66.07.95.19.29.12.51.29.65.48s.24.44.3.71c.03.18.05.49.05.93v3.51h-.97v-3.46c0-.4-.04-.68-.11-.88-.08-.2-.21-.35-.4-.47-.2-.11-.42-.18-.67-.18-.42,0-.78.13-1.08.4-.3.26-.44.76-.44,1.48v3.11h-.97Z"/>
  <path class="cls-12" d="M360.04,76.44c-.35.14-.88.26-1.58.36-.4.07-.68.13-.85.2-.17.07-.29.18-.37.31-.09.14-.13.3-.13.46,0,.26.09.47.29.65s.48.25.86.25.7-.08.99-.24c.29-.17.51-.39.65-.67.1-.22.15-.54.15-.97v-.35ZM360.12,78.59c-.36.31-.7.53-1.03.65-.33.11-.69.18-1.07.18-.63,0-1.11-.14-1.44-.45-.34-.31-.51-.69-.51-1.18,0-.28.05-.53.19-.76.13-.23.3-.42.51-.56.2-.13.43-.24.69-.32.19-.04.47-.09.86-.14.78-.09,1.35-.2,1.73-.33v-.25c0-.4-.09-.67-.26-.84-.25-.22-.63-.33-1.11-.33s-.79.09-1.01.24c-.22.16-.37.45-.47.85l-.95-.13c.09-.4.23-.73.43-.98.2-.24.47-.44.85-.57.37-.13.8-.2,1.3-.2s.88.07,1.19.18c.31.11.53.25.67.43.14.18.24.39.3.65.03.18.06.47.06.9v1.29c0,.9.01,1.46.05,1.7s.12.46.25.68h-1.01c-.11-.2-.18-.43-.2-.7Z"/>
  <path class="cls-12" d="M363.14,76.34c0,.75.14,1.3.44,1.64.3.35.67.52,1.12.52s.8-.16,1.11-.51c.3-.34.45-.88.45-1.62,0-.69-.15-1.22-.46-1.57-.31-.35-.68-.54-1.12-.54s-.79.18-1.09.53c-.31.35-.45.87-.45,1.55ZM362.34,79.76l.93.14c.04.29.15.49.33.63.24.18.56.27.98.27.44,0,.79-.1,1.03-.27s.42-.43.51-.75c.04-.2.07-.61.07-1.23-.43.51-.96.75-1.58.75-.79,0-1.4-.27-1.83-.85-.43-.56-.64-1.24-.64-2.04,0-.54.1-1.05.3-1.51s.48-.81.86-1.07c.37-.24.81-.37,1.32-.37.67,0,1.22.27,1.66.81v-.69h.89v4.94c0,.88-.1,1.5-.27,1.87s-.46.66-.86.88c-.4.21-.87.32-1.44.32-.68,0-1.23-.15-1.65-.46-.42-.31-.63-.76-.61-1.38Z"/>
  <path class="cls-12" d="M369.36,75.9h3.19c-.04-.48-.17-.84-.36-1.08-.31-.37-.71-.56-1.2-.56-.45,0-.82.15-1.12.45-.31.3-.47.69-.51,1.19ZM372.54,77.46l1,.12c-.16.59-.46,1.05-.88,1.36-.43.32-.97.47-1.63.47-.84,0-1.51-.25-1.99-.76s-.73-1.23-.73-2.17.24-1.71.74-2.23c.48-.53,1.13-.79,1.92-.79s1.39.26,1.87.78.73,1.24.73,2.19c0,.07-.01.14-.01.25h-4.26c.03.64.21,1.11.53,1.44.32.33.72.49,1.2.49.35,0,.66-.09.91-.28.24-.18.44-.47.59-.89Z"/>
  <path class="cls-12" d="M375.4,76.45c0,.74.14,1.29.45,1.64.31.36.67.54,1.09.54s.78-.17,1.08-.52c.3-.34.45-.87.45-1.57,0-.78-.15-1.35-.45-1.73-.31-.36-.67-.55-1.11-.55s-.79.18-1.08.53c-.29.35-.43.91-.43,1.66ZM378.44,79.3v-.71c-.36.56-.89.84-1.6.84-.46,0-.88-.12-1.25-.37-.39-.24-.68-.59-.89-1.05-.21-.44-.31-.96-.31-1.55,0-.56.09-1.08.29-1.54.19-.46.47-.82.85-1.07.37-.24.8-.37,1.28-.37.34,0,.65.08.92.22.26.14.48.33.65.56v-2.83h.97v7.88h-.9Z"/>
  <path class="cls-12" d="M385.77,81.6c-.54-.67-.99-1.45-1.35-2.34-.37-.9-.55-1.84-.55-2.8,0-.85.13-1.66.41-2.45.32-.9.81-1.8,1.5-2.71h.69c-.44.75-.73,1.29-.86,1.6-.22.49-.4,1.01-.52,1.55-.15.67-.23,1.34-.23,2.01,0,1.73.53,3.43,1.61,5.15h-.69Z"/>
  <path class="cls-12" d="M389.11,76.06h2.67l-.83-2.18c-.25-.66-.44-1.21-.56-1.64-.1.51-.24,1.01-.42,1.51l-.87,2.31ZM386.86,79.3l3-7.88h1.12l3.22,7.88h-1.18l-.92-2.39h-3.29l-.87,2.39h-1.09Z"/>
  <rect class="cls-12" x="394.9" y="71.42" width=".97" height="7.88"/>
  <rect class="cls-12" x="397.34" y="71.42" width=".97" height="7.88"/>
  <path class="cls-12" d="M400.44,81.6h-.69c1.07-1.72,1.61-3.42,1.61-5.15,0-.67-.08-1.34-.23-2-.13-.53-.3-1.04-.52-1.55-.14-.31-.43-.85-.86-1.61h.69c.66.9,1.15,1.8,1.48,2.71.27.79.42,1.61.42,2.45,0,.97-.19,1.9-.56,2.8-.37.89-.81,1.67-1.34,2.34Z"/>
  <rect class="cls-14" x="289.42" y="87.29" width="22" height="7.7"/>
  <rect class="cls-7" x="289.42" y="87.29" width="22" height="7.7"/>
  <path class="cls-12" d="M321.04,94.99v-7.88h1.57l1.86,5.58c.18.53.3.91.37,1.17.09-.29.23-.7.42-1.26l1.89-5.48h1.4v7.88h-1v-6.59l-2.29,6.59h-.93l-2.28-6.7v6.7h-1.01Z"/>
  <path class="cls-12" d="M333.75,92.12c-.35.14-.88.26-1.58.36-.4.07-.68.13-.85.2-.17.07-.29.18-.37.31-.09.14-.13.3-.13.46,0,.26.09.47.29.65.2.18.48.25.86.25s.7-.08.99-.24c.29-.16.51-.38.65-.67.1-.22.15-.54.15-.97v-.35ZM333.83,94.28c-.36.31-.7.53-1.03.65-.33.11-.69.18-1.07.18-.63,0-1.11-.14-1.44-.45-.34-.31-.51-.69-.51-1.18,0-.27.05-.53.19-.76.13-.23.3-.42.51-.56.2-.13.43-.24.69-.32.19-.04.47-.09.86-.14.78-.09,1.35-.2,1.73-.33v-.25c0-.4-.09-.67-.26-.84-.25-.22-.63-.33-1.11-.33s-.79.09-1.01.24c-.22.17-.37.45-.47.85l-.95-.13c.09-.4.23-.73.43-.98.2-.24.47-.44.85-.57s.8-.2,1.3-.2.88.07,1.19.18c.31.11.53.25.67.43.14.18.24.39.3.65.03.18.05.47.05.9v1.29c0,.9.01,1.46.05,1.7.04.24.12.46.25.68h-1.01c-.11-.2-.18-.43-.2-.7Z"/>
  <path class="cls-12" d="M336.23,94.99v-5.71h.87v.81c.42-.62,1.02-.93,1.82-.93.34,0,.66.07.95.19.29.12.51.29.65.48s.24.44.3.71c.03.18.05.49.05.93v3.51h-.97v-3.46c0-.4-.04-.68-.11-.88-.08-.2-.21-.35-.4-.47-.2-.11-.42-.18-.67-.18-.42,0-.78.13-1.08.4-.3.26-.44.76-.44,1.49v3.11h-.97Z"/>
  <path class="cls-12" d="M345.98,92.12c-.35.14-.88.26-1.58.36-.4.07-.68.13-.85.2-.17.07-.29.18-.37.31-.09.14-.13.3-.13.46,0,.26.09.47.29.65.2.18.48.25.86.25s.7-.08.99-.24c.29-.16.51-.38.65-.67.1-.22.15-.54.15-.97v-.35ZM346.06,94.28c-.36.31-.7.53-1.03.65-.33.11-.69.18-1.07.18-.63,0-1.11-.14-1.44-.45-.34-.31-.51-.69-.51-1.18,0-.27.05-.53.19-.76.13-.23.3-.42.51-.56.2-.13.43-.24.69-.32.19-.04.47-.09.86-.14.78-.09,1.35-.2,1.73-.33v-.25c0-.4-.09-.67-.26-.84-.25-.22-.63-.33-1.11-.33s-.79.09-1.01.24c-.22.17-.37.45-.47.85l-.95-.13c.09-.4.23-.73.43-.98.2-.24.47-.44.85-.57s.8-.2,1.3-.2.88.07,1.19.18c.31.11.53.25.67.43.14.18.24.39.3.65.03.18.05.47.05.9v1.29c0,.9.01,1.46.05,1.7.04.24.12.46.25.68h-1.01c-.11-.2-.18-.43-.2-.7Z"/>
  <path class="cls-12" d="M349.09,92.03c0,.75.14,1.3.44,1.64.3.35.67.52,1.12.52s.8-.17,1.11-.51c.3-.34.45-.88.45-1.62,0-.69-.15-1.22-.46-1.57-.31-.35-.68-.54-1.12-.54s-.79.18-1.09.53c-.31.35-.45.87-.45,1.55ZM348.28,95.45l.93.14c.04.29.15.5.33.63.24.18.56.28.98.28.44,0,.79-.1,1.03-.28.24-.18.42-.43.51-.75.04-.2.07-.6.07-1.23-.43.51-.96.75-1.58.75-.79,0-1.4-.27-1.83-.85-.43-.56-.64-1.24-.64-2.04,0-.54.1-1.04.3-1.51.2-.46.48-.81.86-1.07.37-.24.81-.37,1.32-.37.67,0,1.22.27,1.66.81v-.69h.89v4.94c0,.88-.1,1.5-.27,1.87-.18.37-.46.66-.86.88-.4.21-.87.32-1.44.32-.68,0-1.23-.15-1.65-.46s-.63-.76-.61-1.38Z"/>
  <path class="cls-12" d="M355.3,91.59h3.19c-.04-.48-.17-.84-.36-1.08-.31-.37-.71-.56-1.2-.56-.45,0-.82.15-1.12.45-.31.3-.47.69-.51,1.19ZM358.48,93.15l1,.12c-.16.59-.46,1.04-.88,1.36-.43.32-.97.47-1.63.47-.84,0-1.51-.25-1.99-.76s-.73-1.23-.73-2.17.24-1.7.74-2.23c.48-.53,1.13-.79,1.92-.79s1.39.26,1.87.78.73,1.24.73,2.19c0,.07-.01.14-.01.25h-4.26c.03.64.21,1.11.53,1.44s.72.49,1.2.49c.35,0,.66-.09.91-.27.24-.18.44-.47.59-.89Z"/>
  <path class="cls-12" d="M361.34,92.14c0,.74.14,1.29.45,1.64.31.36.67.54,1.09.54s.78-.16,1.08-.52c.3-.34.45-.87.45-1.57,0-.78-.15-1.35-.45-1.73-.31-.36-.67-.55-1.11-.55s-.79.18-1.08.53c-.29.35-.43.91-.43,1.66ZM364.39,94.99v-.71c-.36.56-.89.84-1.6.84-.46,0-.88-.12-1.25-.37-.39-.24-.68-.59-.89-1.04-.21-.44-.31-.96-.31-1.55,0-.56.09-1.08.29-1.54.19-.46.47-.82.85-1.07.37-.24.8-.37,1.28-.37.34,0,.65.08.92.22.26.14.48.33.65.56v-2.83h.97v7.88h-.9Z"/>
</svg>